<svg width="512" height="512" viewBox="0 0 512 512" xmlns="http://www.w3.org/2000/svg">
  <!-- Background -->
  <rect width="512" height="512" rx="100" fill="#0B1D3A"/>

  <!-- Logbook lines -->
  <rect x="80" y="350" width="352" height="16" rx="8" fill="#1C6EAF" opacity="0.5"/>
  <rect x="80" y="382" width="250" height="12" rx="6" fill="#1C6EAF" opacity="0.35"/>
  <rect x="80" y="410" width="290" height="12" rx="6" fill="#1C6EAF" opacity="0.35"/>

  <!-- Airplane body -->
  <g transform="translate(256, 220) rotate(-20)">
    <path d="M0,-80 C7,-78 20,-62 20,-44 L62,8 L49,8 L34,-18 L9,-18 L9,28 L18,46 L0,41 L-18,46 L-9,28 L-9,-18 L-34,-18 L-49,8 L-62,8 L-20,-44 C-20,-62 -7,-78 0,-80 Z" fill="#C9A84C"/>
    <!-- Window -->
    <ellipse cx="25" cy="-42" rx="7" ry="5" fill="#E8C76A" opacity="0.75"/>
  </g>

  <!-- Star accent -->
  <circle cx="390" cy="112" r="16" fill="#C9A84C" opacity="0.9"/>
  <circle cx="390" cy="112" r="8" fill="#0B1D3A"/>

  <!-- Header lines (logbook label) -->
  <rect x="80" y="130" width="160" height="14" rx="7" fill="#C9A84C" opacity="0.3"/>
  <rect x="80" y="154" width="100" height="10" rx="5" fill="#C9A84C" opacity="0.18"/>
</svg>
