<?xml version="1.0" encoding="UTF-8"?>
<svg version="1.1" xmlns="http://www.w3.org/2000/svg" width="1254" height="1254">
<path d="M0,0 L1254,0 L1254,1254 L0,1254 Z " fill="#000E24" transform="translate(0,0)"/>
<path d="M0,0 L46,0 L67,2 L88,5 L111,10 L147,22 L170,32 L191,43 L210,55 L229,69 L234,73 L232,78 L221,90 L214,98 L201,113 L190,125 L181,136 L171,147 L170,149 L166,148 L159,141 L141,128 L125,119 L104,109 L84,102 L58,97 L38,95 L10,95 L-17,99 L-41,106 L-61,114 L-84,126 L-103,139 L-116,150 L-126,159 L-137,170 L-146,181 L-157,196 L-169,216 L-179,237 L-188,263 L-193,285 L-195,298 L-195,341 L-194,355 L-188,383 L-180,405 L-176,414 L-176,454 L-171,479 L-163,500 L-153,519 L-145,531 L-132,547 L-120,559 L-107,569 L-91,579 L-74,587 L-65,589 L-55,593 L-28,597 L-14,599 L-6,602 L21,607 L40,608 L47,610 L69,610 L84,604 L92,599 L94,596 L116,593 L137,590 L149,589 L174,589 L174,591 L169,592 L168,594 L190,589 L212,587 L211,590 L198,598 L181,608 L158,620 L134,630 L110,638 L91,643 L77,646 L59,648 L41,649 L16,649 L-15,646 L-36,643 L-53,638 L-64,636 L-80,630 L-89,626 L-90,624 L-111,616 L-127,608 L-136,602 L-147,591 L-156,580 L-166,566 L-175,550 L-183,530 L-181,537 L-179,544 L-171,560 L-168,565 L-168,568 L-165,568 L-165,571 L-163,571 L-158,580 L-155,583 L-155,586 L-151,588 L-150,590 L-152,594 L-160,589 L-163,588 L-163,586 L-168,585 L-168,583 L-171,583 L-171,581 L-174,581 L-174,579 L-180,577 L-185,572 L-199,561 L-202,560 L-202,558 L-204,558 L-211,550 L-226,535 L-235,524 L-238,518 L-240,519 L-243,514 L-246,511 L-248,507 L-250,505 L-258,491 L-261,487 L-261,482 L-265,480 L-266,473 L-268,473 L-269,470 L-272,470 L-280,453 L-285,441 L-291,424 L-297,404 L-301,389 L-304,369 L-306,351 L-306,299 L-302,269 L-295,240 L-289,222 L-286,214 L-277,193 L-264,168 L-250,146 L-237,128 L-228,117 L-217,105 L-205,92 L-197,85 L-187,76 L-170,63 L-151,50 L-132,39 L-115,30 L-88,19 L-67,12 L-42,6 Z M-228,533 Z " fill="#008ADC" transform="translate(609,154)"/>
<path d="M0,0 L37,0 L61,3 L72,5 L96,12 L98,13 L98,221 L90,220 L72,216 L60,213 L41,211 L-3,211 L-28,216 L-49,223 L-66,231 L-83,242 L-89,247 L-91,247 L-91,186 L-81,187 L-79,187 L-78,178 L-81,175 L-91,175 L-91,133 L-81,134 L-78,130 L-78,124 L-81,122 L-91,122 L-91,82 L-81,83 L-79,83 L-78,80 L-78,73 L-80,71 L-91,71 L-91,30 L-81,24 L-61,15 L-37,7 L-15,2 Z " fill="#FBFBFC" transform="translate(766,473)"/>
<path d="M0,0 L37,0 L62,4 L82,9 L109,20 L128,30 L128,71 L117,71 L115,73 L115,80 L117,83 L123,83 L128,82 L128,122 L118,122 L115,125 L115,131 L117,134 L123,134 L128,133 L128,175 L116,175 L115,184 L117,187 L128,187 L128,247 L124,245 L112,236 L91,225 L78,220 L71,217 L54,213 L38,211 L1,211 L-10,212 L-31,216 L-38,218 L-43,217 L-53,206 L-56,202 L-56,13 L-46,9 L-16,2 Z " fill="#FBFBFC" transform="translate(532,473)"/>
<path d="M0,0 L12,0 L16,3 L16,10 L8,26 L-3,39 L-15,51 L-26,60 L-42,73 L-59,86 L-72,96 L-74,98 L-63,94 L-55,92 L-48,92 L-47,104 L-34,95 L-30,96 L-29,102 L-26,105 L-26,107 L-28,108 L-24,110 L-29,115 L-39,122 L-44,122 L-48,117 L-49,114 L-55,119 L-55,121 L-47,124 L-45,168 L-45,182 L-49,188 L-54,192 L-57,191 L-68,161 L-80,129 L-89,110 L-89,108 L-113,123 L-134,136 L-155,148 L-172,157 L-173,197 L-178,202 L-181,202 L-186,190 L-194,170 L-205,171 L-207,169 L-206,165 L-204,161 L-229,148 L-237,143 L-236,140 L-230,136 L-219,137 L-193,142 L-185,142 L-167,124 L-159,117 L-149,108 L-138,99 L-121,85 L-121,81 L-138,72 L-179,54 L-214,39 L-209,34 L-201,29 L-188,29 L-149,37 L-123,43 L-118,42 L-109,35 L-102,34 L-97,38 L-95,42 L-95,47 L-103,54 L-95,51 L-91,50 L-86,51 L-79,51 L-65,40 L-52,29 L-32,14 L-16,5 Z " fill="#F4F6F8" transform="translate(1094,165)"/>
<path d="M0,0 L111,0 L124,4 L133,10 L139,17 L143,27 L143,50 L140,59 L136,65 L128,72 L119,76 L116,76 L124,86 L133,98 L147,116 L147,118 L115,118 L105,105 L91,87 L86,80 L29,79 L29,118 L0,118 Z " fill="#F9F9FA" transform="translate(451,849)"/>
<path d="M0,0 L2,0 L10,30 L17,56 L23,79 L25,84 L28,96 L35,123 L39,136 L46,164 L49,173 L53,190 L56,204 L-15,204 L-41,198 L-64,192 L-92,186 L-116,182 L-170,182 L-191,185 L-214,190 L-221,193 L-226,198 L-231,201 L-240,203 L-253,203 L-265,200 L-273,193 L-273,191 L-282,190 L-304,185 L-325,182 L-377,181 L-387,174 L-390,173 L-390,171 L-376,169 L-335,169 L-312,172 L-296,176 L-277,181 L-267,185 L-262,189 L-256,192 L-238,192 L-228,187 L-221,183 L-199,176 L-189,174 L-174,171 L-167,170 L-149,169 L-116,169 L-94,172 L-54,181 L-37,186 L-17,192 L-9,195 L-9,21 Z " fill="#0045A2" transform="translate(914,546)"/>
<path d="M0,0 L30,0 L42,36 L45,45 L57,82 L58,86 L61,79 L81,19 L88,0 L117,0 L127,27 L147,86 L151,76 L154,65 L158,55 L163,38 L169,22 L175,2 L176,0 L205,0 L204,5 L188,50 L172,94 L168,107 L163,118 L132,118 L124,95 L121,87 L115,69 L112,61 L108,49 L104,39 L102,36 L98,46 L85,86 L81,96 L74,118 L42,118 L30,84 L27,76 L7,20 L0,2 Z " fill="#F9F9F9" transform="translate(836,849)"/>
<path d="M0,0 L1,0 L2,34 L7,59 L15,80 L25,99 L33,111 L46,127 L58,139 L71,149 L87,159 L104,167 L113,169 L123,173 L150,177 L164,179 L172,182 L199,187 L218,188 L225,190 L247,190 L262,184 L270,179 L272,176 L294,173 L315,170 L327,169 L352,169 L352,171 L347,172 L346,174 L368,169 L390,167 L389,170 L376,178 L359,188 L336,200 L312,210 L288,218 L269,223 L255,226 L237,228 L219,229 L194,229 L163,226 L142,223 L125,218 L114,216 L98,210 L89,206 L89,204 L98,206 L120,211 L150,215 L189,215 L219,212 L244,207 L261,203 L290,194 L310,187 L318,184 L301,188 L290,191 L263,195 L244,196 L228,199 L221,201 L197,205 L172,205 L148,202 L125,196 L109,190 L92,182 L76,172 L60,160 L48,149 L39,140 L26,123 L18,110 L10,94 L3,75 L-1,59 L-3,46 L-3,14 Z " fill="#056FD2" transform="translate(431,574)"/>
<path d="M0,0 L1,2 L2,7 L4,10 L-1,15 L-19,29 L-39,44 L-58,58 L-75,70 L-95,84 L-134,110 L-153,122 L-177,137 L-209,156 L-212,158 L-218,157 L-234,149 L-246,144 L-268,138 L-287,135 L-308,133 L-304,131 L-288,127 L-265,121 L-229,109 L-198,98 L-166,85 L-137,72 L-109,59 L-90,49 L-68,38 L-46,26 L-17,10 Z " fill="#F7F8F9" transform="translate(881,330)"/>
<path d="M0,0 L77,0 L93,5 L102,12 L106,17 L110,25 L112,32 L112,40 L83,40 L79,31 L72,27 L68,26 L9,26 L-1,31 L-5,37 L-6,40 L-6,79 L-1,87 L4,91 L10,92 L69,92 L75,90 L80,86 L82,80 L112,80 L111,91 L107,100 L101,108 L93,114 L83,118 L78,119 L1,119 L-8,117 L-18,112 L-27,104 L-33,94 L-36,83 L-36,34 L-32,23 L-26,14 L-18,7 L-8,2 Z " fill="#F8F8F9" transform="translate(282,848)"/>
<path d="M0,0 L127,0 L128,1 L128,24 L29,24 L29,46 L131,46 L131,72 L0,72 Z " fill="#FCFCFC" transform="translate(658,895)"/>
<path d="M0,0 L1,4 L-2,18 L-2,50 L1,68 L7,88 L16,109 L25,124 L37,140 L48,152 L56,160 L73,173 L89,183 L104,191 L125,199 L139,203 L153,206 L172,208 L197,208 L221,204 L238,200 L244,199 L263,198 L290,194 L305,190 L316,187 L320,188 L296,197 L268,206 L236,214 L219,217 L189,220 L150,220 L120,216 L94,210 L74,203 L52,193 L42,186 L31,175 L22,164 L12,150 L3,134 L-5,114 L-9,102 L-12,86 L-13,77 L-13,45 L-9,24 L-4,9 Z " fill="#F6F8FB" transform="translate(431,570)"/>
<path d="M0,0 L0,3 L-13,11 L-30,21 L-53,33 L-77,43 L-101,51 L-120,56 L-134,59 L-152,61 L-170,62 L-195,62 L-226,59 L-247,56 L-264,51 L-275,49 L-291,43 L-300,39 L-300,37 L-291,39 L-269,44 L-239,48 L-200,48 L-170,45 L-145,40 L-128,36 L-99,27 L-79,20 L-71,17 L-122,17 L-122,14 L-117,9 L-95,6 L-74,3 L-62,2 L-37,2 L-37,4 L-42,5 L-43,7 L-21,2 Z " fill="#013FAF" transform="translate(820,741)"/>
<path d="M0,0 L41,0 L64,3 L80,7 L99,12 L109,16 L114,20 L120,23 L138,23 L148,18 L155,14 L177,7 L187,5 L202,2 L209,1 L227,0 L260,0 L282,3 L322,12 L339,17 L353,21 L353,24 L363,26 L365,28 L365,32 L363,33 L351,33 L316,24 L289,18 L260,13 L206,13 L185,16 L162,21 L155,24 L150,29 L145,32 L136,34 L123,34 L111,31 L103,24 L103,22 L94,21 L72,16 L51,13 L-1,12 L-11,5 L-14,4 L-14,2 Z " fill="#0069CB" transform="translate(538,715)"/>
<path d="M0,0 L6,2 L10,4 L10,220 L-16,214 L-24,211 L-36,208 L-54,203 L-80,198 L-120,198 L-139,201 L-164,208 L-177,213 L-188,219 L-190,218 L-179,210 L-163,202 L-148,196 L-127,190 L-114,188 L-71,188 L-55,190 L-42,193 L-24,197 L-2,202 L0,203 Z " fill="#2ECBF6" transform="translate(879,510)"/>
<path d="M0,0 L130,0 L130,24 L0,24 Z " fill="#FCFBFC" transform="translate(658,849)"/>
<path d="M0,0 L74,0 L81,3 L86,8 L87,11 L87,21 L83,27 L79,30 L76,31 L0,31 Z " fill="#071327" transform="translate(479,873)"/>
<path d="M0,0 L10,0 L20,4 L28,13 L30,18 L30,31 L26,41 L19,47 L12,50 L-2,50 L-10,46 L-16,39 L-19,32 L-19,19 L-16,11 L-9,4 Z " fill="#01A1F0" transform="translate(809,1004)"/>
<path d="M0,0 L17,0 L25,5 L31,12 L33,18 L33,29 L30,38 L25,44 L18,48 L14,49 L2,49 L-6,46 L-13,39 L-16,33 L-16,16 L-11,8 L-4,2 Z " fill="#019FF0" transform="translate(460,1005)"/>
<path d="M0,0 L15,0 L25,5 L31,13 L32,16 L32,32 L28,40 L20,47 L15,49 L0,49 L-10,43 L-16,34 L-17,30 L-17,19 L-14,11 L-9,5 Z " fill="#02A2F0" transform="translate(718,1005)"/>
<path d="M0,0 L1,0 L1,42 L-25,36 L-33,33 L-45,30 L-63,25 L-89,20 L-129,20 L-148,23 L-173,30 L-186,35 L-197,41 L-199,40 L-188,32 L-172,24 L-157,18 L-136,12 L-123,10 L-80,10 L-64,12 L-51,15 L-33,19 L-11,24 L-9,25 L-9,1 L-8,1 L-7,16 L-5,21 L-3,21 L-2,29 L-2,35 L-1,36 Z " fill="#F0F4F6" transform="translate(888,688)"/>
<path d="M0,0 L28,0 L35,3 L39,8 L39,16 L36,21 L33,22 L33,24 L37,25 L41,30 L41,39 L38,44 L35,47 L30,49 L0,49 Z " fill="#029DEB" transform="translate(620,1005)"/>
<path d="M0,0 L3,0 L3,140 L0,136 L-6,121 L-8,117 L-8,5 Z " fill="#26CAFC" transform="translate(458,510)"/>
<path d="M0,0 L40,0 L66,5 L84,10 L102,15 L117,19 L129,22 L130,29 L118,26 L97,20 L56,11 L39,9 L6,9 L-12,10 L-31,13 L-36,15 L-46,17 L-62,22 L-64,21 L-65,19 L-57,15 L-44,10 L-26,5 L-19,3 Z " fill="#041126" transform="translate(759,707)"/>
<path d="M0,0 L8,0 L8,2 L-10,7 L-31,13 L-55,22 L-79,33 L-103,47 L-117,57 L-128,65 L-139,74 L-148,82 L-155,90 L-170,105 L-177,113 L-182,118 L-194,133 L-204,148 L-218,172 L-226,188 L-233,204 L-234,200 L-233,193 L-222,170 L-211,151 L-203,139 L-190,121 L-181,110 L-170,98 L-158,85 L-150,78 L-140,69 L-123,56 L-104,43 L-85,32 L-68,23 L-41,12 L-20,5 Z " fill="#02B1EF" transform="translate(562,161)"/>
<path d="M0,0 L7,0 L7,2 L3,4 L2,9 L34,9 L34,4 L30,2 L30,0 L37,0 L40,3 L40,10 L36,14 L31,14 L26,12 L26,52 L32,53 L35,55 L35,60 L34,61 L2,61 L2,56 L7,51 L11,52 L11,12 L6,14 L0,14 L-3,10 L-3,3 Z " fill="#030E22" transform="translate(649,543)"/>
<path d="M0,0 L46,0 L67,2 L88,5 L111,10 L147,22 L170,32 L191,43 L210,55 L229,69 L234,73 L233,76 L229,74 L221,68 L213,63 L204,56 L197,52 L184,44 L177,41 L171,38 L164,35 L164,33 L155,31 L155,29 L148,28 L141,25 L125,19 L119,18 L111,15 L107,15 L107,13 L101,13 L91,11 L87,10 L74,8 L68,7 L54,6 L48,5 L39,5 L39,3 L13,4 L5,5 L-7,5 L-31,8 L-38,7 L-34,5 L-8,1 Z " fill="#3EE3F4" transform="translate(609,154)"/>
<path d="M0,0 L16,0 L25,4 L27,7 L23,12 L18,10 L13,8 L5,8 L-2,11 L-6,17 L-7,20 L-7,29 L-2,37 L2,40 L14,40 L20,39 L20,29 L8,29 L8,22 L28,22 L28,43 L16,49 L1,49 L-7,45 L-12,40 L-16,33 L-16,17 L-13,10 L-6,3 Z " fill="#02A1F1" transform="translate(549,1005)"/>
<path d="M0,0 L34,0 L59,4 L63,6 L63,14 L53,13 L31,10 L-2,10 L-23,14 L-38,18 L-48,22 L-51,22 L-51,13 L-35,7 L-13,2 Z " fill="#0F58B2" transform="translate(767,622)"/>
<path d="M0,0 L36,0 L49,2 L64,6 L77,10 L85,13 L85,22 L79,21 L62,15 L35,10 L0,10 L-24,14 L-27,14 L-27,6 L-19,3 Z " fill="#0D54B0" transform="translate(535,622)"/>
<path d="M0,0 L22,0 L52,4 L56,6 L56,14 L49,14 L25,10 L-8,10 L-32,15 L-49,20 L-55,23 L-58,23 L-58,14 L-49,10 L-24,3 Z " fill="#1192E6" transform="translate(774,523)"/>
<path d="M0,0 L26,0 L48,3 L73,10 L83,14 L83,23 L73,20 L54,14 L31,10 L0,10 L-23,14 L-29,15 L-29,6 L-13,2 Z " fill="#0E70CB" transform="translate(537,573)"/>
<path d="M0,0 L32,0 L34,1 L47,3 L60,6 L71,10 L81,13 L82,14 L82,23 L71,20 L62,17 L58,15 L47,13 L35,10 L-2,10 L-26,14 L-30,14 L-30,5 L-14,2 Z " fill="#1191E5" transform="translate(538,523)"/>
<path d="M0,0 L24,0 L44,2 L58,5 L61,6 L61,14 L51,13 L33,10 L-3,10 L-15,12 L-36,17 L-50,22 L-53,22 L-53,14 L-44,10 L-26,5 L-8,1 Z " fill="#0C72CE" transform="translate(769,573)"/>
<path d="M0,0 L32,0 L49,2 L65,6 L76,9 L84,13 L91,16 L107,25 L115,31 L112,31 L98,24 L86,19 L61,13 L59,12 L44,10 L0,10 L-14,12 L-21,12 L-29,6 L-26,4 Z " fill="#EFF3F6" transform="translate(533,698)"/>
<path d="M0,0 L8,0 L9,22 L17,14 L24,6 L30,0 L40,0 L40,2 L35,6 L28,14 L23,19 L24,24 L38,42 L42,47 L42,49 L31,49 L25,40 L16,28 L13,29 L10,33 L8,33 L8,49 L0,49 Z " fill="#02A1F0" transform="translate(881,1005)"/>
<path d="M0,0 L60,0 L62,2 L61,7 L60,8 L-14,8 L-76,6 L-96,5 L-96,3 Z " fill="#03A9F1" transform="translate(267,1027)"/>
<path d="M0,0 L76,0 L91,1 L152,3 L152,5 L105,7 L70,8 L0,8 L-1,7 L-1,1 Z " fill="#04AEF4" transform="translate(958,1027)"/>
<path d="M0,0 L6,2 L10,4 L10,178 L9,217 L6,213 L6,199 L4,199 L1,194 L0,179 L0,120 L2,123 L3,137 L5,141 L6,108 L7,99 L8,98 L8,8 L3,4 L0,3 Z " fill="#69CEF5" transform="translate(879,510)"/>
<path d="M0,0 L8,0 L15,4 L20,12 L20,21 L16,29 L11,33 L8,34 L-1,34 L-7,31 L-11,26 L-13,22 L-13,12 L-8,4 L-4,1 Z " fill="#001028" transform="translate(811,1012)"/>
<path d="M0,0 L8,0 L16,4 L20,9 L21,11 L21,22 L18,28 L13,33 L10,34 L-1,34 L-7,30 L-11,24 L-11,10 L-4,2 Z " fill="#000E25" transform="translate(721,1012)"/>
<path d="M0,0 L10,0 L16,4 L20,9 L21,12 L21,22 L17,30 L13,33 L10,34 L-1,34 L-9,27 L-11,22 L-11,12 L-7,5 L-2,1 Z " fill="#000E24" transform="translate(463,1012)"/>
<path d="M0,0 L12,0 L16,3 L16,10 L8,26 L-3,39 L-15,51 L-26,60 L-42,73 L-56,84 L-62,85 L-66,88 L-68,87 L-61,78 L-48,65 L-37,56 L-26,47 L-12,35 L3,21 L10,13 L12,10 L13,3 L9,2 L0,1 Z M-69,88 Z M-70,89 Z M-71,90 Z " fill="#B8CDE3" transform="translate(1094,165)"/>
<path d="M0,0 L25,0 L25,2 L20,3 L20,6 L-9,14 L-17,15 L-60,15 L-60,12 L-55,7 L-33,4 L-12,1 Z " fill="#002076" transform="translate(758,743)"/>
<path d="M0,0 L127,0 L128,1 L128,24 L29,24 L29,23 L126,22 L126,2 L1,2 L1,71 L130,71 L130,47 L29,47 L29,46 L131,46 L131,72 L0,72 Z " fill="#999EA7" transform="translate(658,895)"/>
<path d="M0,0 L9,0 L9,41 L34,41 L34,49 L0,49 Z " fill="#029AE8" transform="translate(372,1005)"/>
<path d="M0,0 L9,1 L15,6 L16,8 L16,20 L11,26 L8,28 L-1,28 L-7,24 L-10,20 L-10,8 L-6,3 Z " fill="#EDEEF0" transform="translate(299,1092)"/>
<path d="M0,0 L11,0 L18,6 L19,8 L19,17 L15,24 L13,24 L12,27 L1,27 L-6,21 L-7,19 L-7,7 L-2,1 Z " fill="#E5E6E9" transform="translate(716,1093)"/>
<path d="M0,0 L6,0 L12,4 L16,9 L16,19 L12,25 L8,27 L-3,27 L-8,23 L-10,19 L-10,8 L-6,3 Z " fill="#E7E8EA" transform="translate(949,1092)"/>
<path d="M0,0 L15,0 L21,5 L22,7 L22,18 L19,23 L15,26 L0,26 Z " fill="#F4F4F5" transform="translate(1013,1093)"/>
<path d="M0,0 L2,0 L10,30 L17,56 L23,79 L25,84 L28,100 L27,104 L22,91 L22,87 L20,87 L20,81 L15,65 L12,54 L10,48 L10,42 L8,41 L6,32 L3,22 L4,20 L2,20 L1,15 L0,13 L-4,18 L-6,22 L-6,65 L-7,75 L-8,75 L-9,65 L-9,21 Z " fill="#0078D5" transform="translate(914,546)"/>
<path d="M0,0 L40,0 L46,2 L46,3 L39,4 L37,3 L6,3 L-3,4 L-3,7 L33,7 L33,8 L-12,10 L-31,13 L-36,15 L-46,17 L-62,22 L-64,21 L-65,19 L-57,15 L-44,10 L-26,5 L-19,3 Z M38,4 Z " fill="#0D1D36" transform="translate(759,707)"/>
<path d="M0,0 L52,0 L49,2 L28,7 L18,9 L-1,12 L-24,12 L-32,11 L-29,10 L-29,8 L-17,7 L-2,1 Z " fill="#0762C3" transform="translate(695,757)"/>
<path d="M0,0 L8,0 L8,2 L-10,7 L-31,13 L-55,22 L-79,33 L-103,47 L-117,57 L-123,61 L-125,61 L-124,57 L-109,46 L-87,33 L-68,23 L-41,12 L-20,5 Z " fill="#42E4F3" transform="translate(562,161)"/>
<path d="M0,0 L32,0 L49,2 L65,6 L76,9 L84,13 L91,16 L107,25 L115,31 L112,31 L98,24 L86,19 L61,13 L59,11 L60,9 L62,9 L62,7 L58,7 L58,5 L45,4 L24,3 L7,3 L-18,5 L-22,7 L-25,7 L-26,9 L-29,5 L-12,2 Z " fill="#E4E7EB" transform="translate(533,698)"/>
<path d="M0,0 L16,0 L21,5 L21,11 L18,15 L16,15 L21,26 L16,26 L11,19 L11,17 L5,17 L5,27 L0,27 Z " fill="#CCCED4" transform="translate(839,1093)"/>
<path d="M0,0 L1,0 L2,13 L3,13 L4,26 L4,52 L7,78 L12,101 L15,114 L22,135 L25,146 L27,146 L31,157 L33,162 L33,165 L31,165 L25,153 L19,137 L14,122 L8,101 L5,90 L2,70 L0,52 Z " fill="#0048A6" transform="translate(303,453)"/>
<path d="M0,0 L4,1 L5,7 L8,10 L8,12 L6,13 L10,15 L5,20 L-5,27 L-10,27 L-14,22 L-15,19 L-19,19 L-18,16 L-13,11 L-8,6 Z " fill="#F8F8FA" transform="translate(1060,260)"/>
<path d="M0,0 L15,0 L20,4 L20,12 L16,16 L18,21 L21,26 L16,26 L10,18 L4,17 L4,26 L0,26 Z " fill="#F1F2F4" transform="translate(367,1093)"/>
<path d="M0,0 L15,0 L20,5 L20,12 L16,16 L18,21 L20,26 L15,26 L10,18 L4,17 L4,26 L0,26 Z " fill="#ECECEF" transform="translate(786,1093)"/>
<path d="M0,0 L15,0 L20,5 L20,11 L16,16 L18,21 L20,26 L15,26 L10,18 L4,17 L4,26 L0,26 Z " fill="#E7E8EA" transform="translate(979,1093)"/>
<path d="M0,0 L11,2 L23,6 L35,9 L50,13 L62,16 L63,23 L51,20 L30,14 L-6,6 L-5,3 L-1,2 Z " fill="#0A1730" transform="translate(826,713)"/>
<path d="M0,0 L51,0 L59,7 L65,10 L65,11 L49,11 L22,6 L10,2 L0,1 Z " fill="#002477" transform="translate(581,751)"/>
<path d="M0,0 L5,0 L5,10 L17,10 L17,0 L22,0 L22,27 L17,26 L17,16 L5,16 L5,27 L0,27 Z " fill="#B6B9C0" transform="translate(541,1093)"/>
<path d="M0,0 L2,0 L3,17 L5,14 L6,22 L8,25 L9,30 L9,71 L6,67 L6,53 L4,53 L1,48 L0,33 Z " fill="#A6E0F7" transform="translate(879,656)"/>
<path d="M0,0 L12,0 L15,2 L14,6 L10,5 L2,5 L-2,9 L-2,17 L1,21 L12,21 L12,16 L5,16 L5,12 L17,12 L17,23 L9,27 L1,27 L-6,21 L-7,17 L-7,7 L-2,1 Z " fill="#EDEEF0" transform="translate(510,1093)"/>
<path d="M0,0 L46,0 L67,2 L71,4 L13,4 L5,5 L-7,5 L-31,8 L-38,7 L-34,5 L-8,1 Z " fill="#4BD8E4" transform="translate(609,154)"/>
<path d="M0,0 L3,0 L3,4 L-6,7 L-5,104 L-3,116 L-3,122 L-5,123 L-8,117 L-8,5 Z " fill="#3CB9D7" transform="translate(458,510)"/>
<path d="M0,0 L5,0 L6,19 L7,22 L16,21 L17,19 L18,0 L23,0 L23,20 L19,25 L15,27 L7,27 L2,23 L0,19 Z " fill="#CED0D7" transform="translate(329,1093)"/>
<path d="M0,0 L5,0 L6,19 L8,21 L16,21 L17,19 L18,0 L23,0 L23,19 L20,24 L15,27 L7,27 L2,23 L0,19 Z " fill="#D8DADE" transform="translate(748,1093)"/>
<path d="M0,0 L20,0 L23,2 L23,10 L18,13 L0,13 Z " fill="#000F27" transform="translate(629,1033)"/>
<path d="M0,0 L23,0 L28,3 L28,8 L27,9 L-5,9 L-5,3 Z " fill="#004199" transform="translate(656,648)"/>
<path d="M0,0 L8,0 L13,5 L13,13 L8,18 L0,18 L-4,14 L-5,12 L-5,6 Z " fill="#0A1323" transform="translate(298,1097)"/>
<path d="M0,0 L18,0 L18,4 L4,4 L4,11 L17,11 L17,15 L4,15 L4,22 L18,22 L18,26 L0,26 Z " fill="#EDEEF0" transform="translate(874,1093)"/>
<path d="M0,0 L8,0 L8,1 L-7,5 L-20,9 L-20,13 L-36,17 L-50,22 L-66,30 L-68,29 L-57,21 L-41,13 L-26,7 L-5,1 Z " fill="#E8ECEF" transform="translate(757,699)"/>
<path d="M0,0 L8,0 L13,6 L13,12 L10,17 L8,18 L0,18 L-5,13 L-5,6 Z " fill="#0E182B" transform="translate(948,1097)"/>
<path d="M0,0 L8,0 L12,4 L12,13 L8,18 L-1,18 L-5,13 L-5,5 Z " fill="#081327" transform="translate(718,1097)"/>
<path d="M0,0 L22,1 L28,4 L28,9 L27,10 L-5,10 L-5,5 Z " fill="#00439A" transform="translate(656,594)"/>
<path d="M0,0 L1,2 L2,7 L4,10 L-1,15 L-11,23 L-13,19 L-20,16 L-24,14 Z " fill="#D3DEE9" transform="translate(881,330)"/>
<path d="M0,0 L7,0 L12,3 L11,6 L0,6 L0,10 L10,13 L13,16 L13,23 L9,27 L7,28 L0,28 L-7,25 L-5,21 L1,23 L8,22 L9,18 L-2,15 L-6,10 L-6,5 Z " fill="#E9EAED" transform="translate(615,1092)"/>
<path d="M0,0 L23,1 L28,4 L28,9 L27,10 L-5,9 L-5,4 L-3,2 L0,2 Z " fill="#004CA2" transform="translate(656,543)"/>
<path d="M0,0 L18,0 L18,4 L5,4 L5,11 L17,11 L17,16 L5,16 L5,26 L0,27 Z " fill="#C2C6CC" transform="translate(421,1093)"/>
<path d="M0,0 L19,0 L21,2 L21,9 L18,12 L0,12 Z " fill="#000E25" transform="translate(629,1013)"/>
<path d="M0,0 L6,1 L17,5 L27,8 L28,9 L28,18 L17,15 L8,12 L4,10 L-7,8 L-3,7 L2,8 L4,4 L3,1 Z " fill="#1C9AEA" transform="translate(592,528)"/>
<path d="M0,0 L11,0 L15,3 L14,6 L10,5 L2,5 L-2,10 L-2,16 L0,20 L2,21 L10,21 L14,20 L16,23 L12,26 L3,27 L-3,24 L-7,18 L-7,7 L-2,2 Z " fill="#E2E3E8" transform="translate(912,1093)"/>
<path d="M0,0 L9,0 L14,5 L14,12 L11,17 L9,18 L0,18 Z " fill="#0A172C" transform="translate(1017,1097)"/>
<path d="M0,0 L43,0 L59,2 L72,5 L90,9 L112,14 L108,16 L100,15 L74,9 L62,6 L42,4 L40,3 L40,1 L0,1 Z " fill="#CCDCE8" transform="translate(765,698)"/>
<path d="M0,0 L8,0 L12,3 L12,6 L15,8 L3,8 L3,12 L10,12 L10,17 L8,18 L-1,18 L-5,13 L-5,5 Z " fill="#111E35" transform="translate(512,1097)"/>
<path d="M0,0 L40,0 L46,2 L46,3 L39,4 L37,3 L6,3 L-3,4 L-3,7 L33,7 L33,8 L6,9 L-8,9 L-15,8 L-14,5 L-18,4 L-18,6 L-22,7 L-26,5 L-19,3 Z M38,4 Z " fill="#062348" transform="translate(759,707)"/>
<path d="M0,0 L2,1 L8,17 L16,33 L26,49 L35,60 L47,73 L49,76 L43,75 L34,70 L31,67 L33,67 L34,63 L30,60 L27,55 L22,48 L22,45 L20,45 L20,42 L17,42 L6,19 L3,12 L0,3 Z " fill="#132B7A" transform="translate(424,680)"/>
<path d="M0,0 L12,0 L11,2 L4,2 L4,12 L17,12 L17,14 L15,14 L20,25 L15,25 L10,18 L10,16 L4,16 L4,25 L0,25 Z " fill="#F2F3F4" transform="translate(840,1094)"/>
<path d="M0,0 L9,2 L31,7 L61,11 L78,12 L78,13 L60,14 L57,13 L52,14 L47,12 L41,12 L38,11 L30,11 L32,13 L25,12 L9,6 L0,2 Z " fill="#06287C" transform="translate(520,778)"/>
<path d="M0,0 L6,2 L10,4 L10,178 L9,178 L8,8 L3,4 L0,3 Z " fill="#69F0FF" transform="translate(879,510)"/>
<path d="M0,0 L2,4 L-12,15 L-24,26 L-32,33 L-41,42 L-45,44 L-47,45 L-45,41 L-38,34 L-32,27 L-24,20 L-14,11 Z " fill="#0CD2F2" transform="translate(436,219)"/>
<path d="M0,0 L21,0 L21,4 L13,4 L13,27 L8,27 L8,4 L0,4 Z " fill="#D9DBDF" transform="translate(576,1093)"/>
<path d="M0,0 L5,0 L11,10 L13,11 L15,6 L19,0 L24,0 L16,14 L15,15 L14,26 L10,26 L9,15 L2,5 Z " fill="#F4F4F7" transform="translate(255,1093)"/>
<path d="M0,0 L5,0 L11,9 L11,11 L13,11 L15,6 L19,0 L24,0 L16,14 L15,15 L14,26 L10,26 L9,15 L0,1 Z " fill="#EEEFF1" transform="translate(675,1093)"/>
<path d="M0,0 L15,0 L13,4 L4,4 L4,13 L13,13 L12,20 L10,18 L4,17 L4,26 L0,26 Z " fill="#E1E2E5" transform="translate(979,1093)"/>
<path d="M0,0 L32,0 L49,2 L62,5 L58,6 L45,4 L24,3 L7,3 L-18,5 L-22,7 L-25,7 L-26,9 L-29,5 L-12,2 Z " fill="#A5C2D8" transform="translate(533,698)"/>
<path d="M0,0 L1,0 L2,60 L3,64 L4,49 L5,49 L5,79 L3,80 L1,75 L0,61 L-1,58 L-1,13 Z " fill="#3FCBF6" transform="translate(880,572)"/>
<path d="M0,0 L1,4 L0,15 L-21,20 L-27,22 L-22,17 L-6,5 Z " fill="#0C2A53" transform="translate(1045,242)"/>
<path d="M0,0 L1,4 L2,5 L3,9 L3,14 L2,18 L1,28 L-2,46 L-3,84 L-4,84 L-4,26 L-1,3 Z " fill="#0071D4" transform="translate(308,420)"/>
<path d="M0,0 L1,2 L3,2 L9,24 L14,44 L19,61 L19,69 L17,66 L15,61 L12,48 L9,40 L6,25 L2,15 L0,4 Z " fill="#0062C4" transform="translate(942,651)"/>
<path d="M0,0 L3,4 L3,12 L1,10 L-3,15 L-5,19 L-5,62 L-6,72 L-7,72 L-8,62 L-8,18 Z " fill="#0062C2" transform="translate(913,549)"/>
<path d="M0,0 L1,0 L4,24 L5,22 L7,22 L7,12 L8,12 L9,35 L9,50 L6,46 L1,33 L2,32 L1,20 L0,14 Z " fill="#44CBFC" transform="translate(452,600)"/>
<path d="M0,0 L1,0 L2,13 L3,13 L4,26 L4,52 L5,58 L5,77 L3,74 L1,60 L0,52 Z " fill="#0057B4" transform="translate(303,453)"/>
<path d="M0,0 L38,0 L54,3 L52,4 L53,8 L46,7 L43,6 L33,5 L29,4 L15,3 L9,2 L0,2 Z " fill="#38DDF1" transform="translate(648,157)"/>
<path d="M0,0 L13,0 L41,1 L41,3 L-6,5 L-26,5 L-24,3 L-10,3 L-6,1 Z " fill="#23B0E1" transform="translate(1069,1029)"/>
<path d="M0,0 L2,0 L10,30 L13,42 L13,48 L10,47 L10,42 L8,41 L6,32 L3,22 L4,20 L2,20 L1,7 Z " fill="#018CDE" transform="translate(914,546)"/>
<path d="M0,0 L2,1 L-14,9 L-31,18 L-50,31 L-60,39 L-62,39 L-60,35 L-52,30 L-47,25 L-42,22 L-40,22 L-40,20 L-28,13 L-22,10 L-12,4 Z " fill="#01A9ED" transform="translate(556,262)"/>
<path d="M0,0 L13,0 L12,3 L4,3 L4,22 L12,22 L12,25 L0,25 Z " fill="#F8F8F9" transform="translate(1013,1094)"/>
<path d="M0,0 L3,0 L4,11 L1,15 L-1,15 L-2,18 L-13,18 L-20,12 L-18,8 L-16,8 L-13,12 L-4,12 L-1,8 Z " fill="#D1D3D9" transform="translate(730,1102)"/>
<path d="M0,0 L11,2 L21,5 L27,8 L26,12 L14,10 L0,7 L2,5 Z " fill="#081A39" transform="translate(604,713)"/>
<path d="M0,0 L4,0 L4,23 L17,23 L17,26 L0,26 Z " fill="#F2F2F4" transform="translate(453,1093)"/>
<path d="M0,0 L4,1 L-20,10 L-35,15 L-39,13 L-40,9 L-26,7 L-11,3 Z " fill="#E4EDF8" transform="translate(747,757)"/>
<path d="M0,0 L2,4 L7,4 L10,3 L25,3 L36,4 L44,3 L53,4 L62,1 L63,6 L-1,6 Z " fill="#002C7E" transform="translate(905,744)"/>
<path d="M0,0 L5,0 L5,20 L1,25 L-1,26 L-10,26 L-10,23 L-1,22 L0,19 Z " fill="#D3D5D9" transform="translate(347,1093)"/>
<path d="M0,0 L5,1 L10,4 L17,7 L34,20 L38,23 L37,26 L33,24 L25,18 L17,13 L8,6 L1,2 Z " fill="#37E2F3" transform="translate(805,204)"/>
<path d="M0,0 L24,0 L24,1 L1,4 L-23,7 L-30,6 L-26,4 Z " fill="#4AEBF6" transform="translate(601,155)"/>
<path d="M0,0 L44,0 L59,2 L59,3 L54,4 L50,5 L50,9 L46,8 L47,7 L42,6 L42,4 L37,4 L39,3 L39,1 L-8,2 L-8,1 Z " fill="#2D374B" transform="translate(533,707)"/>
<path d="M0,0 L4,2 L-4,17 L-12,36 L-13,32 L-12,25 L-1,2 Z " fill="#019EE8" transform="translate(341,329)"/>
<path d="M0,0 L5,0 L5,60 L3,59 L4,10 L2,10 L2,8 L-2,6 L-5,3 L-5,1 Z " fill="#ABB6BF" transform="translate(655,660)"/>
<path d="M0,0 L10,2 L13,3 L13,11 L3,10 L-10,8 L-10,7 L-1,7 L0,5 L3,4 L0,2 Z " fill="#187ED4" transform="translate(817,576)"/>
<path d="M0,0 L1,2 L2,7 L4,10 L-1,15 L-3,16 L-6,13 L-10,9 L-12,7 Z " fill="#7493B6" transform="translate(881,330)"/>
<path d="M0,0 L52,0 L49,2 L41,4 L27,5 L27,3 L-4,3 Z " fill="#05449F" transform="translate(695,757)"/>
<path d="M0,0 L3,0 L7,12 L10,23 L12,23 L16,34 L18,39 L18,42 L16,42 L10,30 L4,14 L0,2 Z " fill="#00409E" transform="translate(318,576)"/>
<path d="M0,0 L3,0 L4,11 L17,12 L17,14 L4,15 L3,26 L0,26 Z " fill="#F5F5F6" transform="translate(542,1093)"/>
<path d="M0,0 L40,0 L46,2 L46,3 L39,4 L37,3 L-4,3 L-4,1 Z M38,4 Z " fill="#1F2436" transform="translate(759,707)"/>
<path d="M0,0 L1,4 L-17,16 L-24,21 L-26,21 L-25,17 L-10,6 Z " fill="#38E1F1" transform="translate(463,201)"/>
<path d="M0,0 L11,3 L24,7 L33,10 L33,12 L38,13 L52,20 L48,21 L29,12 L9,5 L-2,2 Z " fill="#01A9E7" transform="translate(684,251)"/>
<path d="M0,0 L4,0 L4,26 L0,26 Z " fill="#EFEFF2" transform="translate(484,1093)"/>
<path d="M0,0 L5,1 L10,2 L5,7 L2,9 L2,61 L0,61 Z " fill="#CBCFD4" transform="translate(675,659)"/>
<path d="M0,0 L7,0 L7,2 L3,4 L2,9 L26,9 L26,10 L3,10 L3,12 L6,14 L0,14 L-3,10 L-3,3 Z " fill="#0F203B" transform="translate(649,543)"/>
<path d="M0,0 L10,0 L12,2 L11,7 L9,9 L0,9 Z " fill="#060C18" transform="translate(371,1097)"/>
<path d="M0,0 L1,0 L1,11 L3,11 L3,13 L5,13 L6,11 L7,14 L19,15 L20,18 L18,20 L9,20 L3,16 L0,12 Z " fill="#D1D2D8" transform="translate(289,1100)"/>
<path d="M0,0 L1,0 L1,8 L-3,12 L-1,17 L2,22 L-3,22 L-9,14 L-15,13 L-15,12 L-9,11 L-15,10 L-15,9 L-6,8 L-3,6 L-3,9 L-1,7 Z " fill="#DEE0E3" transform="translate(386,1097)"/>
<path d="M0,0 L10,0 L12,2 L11,7 L8,9 L0,9 Z " fill="#171F31" transform="translate(790,1097)"/>
<path d="M0,0 L9,0 L12,3 L11,7 L9,9 L0,9 Z " fill="#131825" transform="translate(983,1097)"/>
<path d="M0,0 L5,1 L11,8 L11,14 L7,16 L3,14 L6,13 L1,6 Z " fill="#C3C5CC" transform="translate(1062,259)"/>
<path d="M0,0 L6,1 L4,3 L28,4 L28,5 L-13,6 L-9,1 Z " fill="#02091A" transform="translate(765,709)"/>
<path d="M0,0 L6,0 L10,4 L10,10 L6,14 L1,14 L-1,12 L-6,11 L-6,10 L4,9 L4,4 L0,2 Z " fill="#0F192F" transform="translate(679,647)"/>
<path d="M0,0 L1,0 L3,21 L2,53 L0,49 Z " fill="#0054B2" transform="translate(905,611)"/>
<path d="M0,0 L3,1 L4,26 L4,40 L1,44 L0,40 L1,38 L1,16 L0,13 Z " fill="#C0CFDE" transform="translate(1045,307)"/>
<path d="M0,0 L9,3 L14,7 L21,11 L25,15 L30,17 L30,19 L34,21 L35,24 L39,26 L36,27 L27,19 L11,8 L0,1 Z " fill="#01A7EC" transform="translate(737,273)"/>
<path d="M0,0 L9,0 L11,2 L11,7 L8,9 L0,9 Z " fill="#1A2033" transform="translate(844,1097)"/>
<path d="M0,0 L6,0 L6,2 L2,4 L1,10 L8,10 L10,13 L-1,14 L-4,10 L-4,4 Z " fill="#17263F" transform="translate(650,647)"/>
<path d="M0,0 L4,0 L4,42 L3,42 L3,9 L-2,7 L-6,2 Z " fill="#A2B0BB" transform="translate(656,606)"/>
<path d="M0,0 L5,0 L5,3 L-9,13 L-14,13 L-14,10 L-5,4 Z " fill="#B1C6DD" transform="translate(1064,274)"/>
<path d="M0,0 L4,0 L4,40 L3,40 L3,9 L-2,7 L-6,4 L-6,2 Z " fill="#A6BCD1" transform="translate(656,555)"/>
<path d="M0,0 L6,0 L10,3 L10,9 L6,14 L1,14 L-2,11 L4,9 L4,4 L-1,2 Z " fill="#0C162C" transform="translate(679,594)"/>
<path d="M0,0 L1,0 L1,29 L0,30 L-1,37 L-2,37 L-2,10 L-1,1 Z " fill="#57CEF7" transform="translate(887,608)"/>
<path d="M0,0 L5,1 L9,2 L7,6 L3,9 L1,9 L1,40 L0,40 Z " fill="#ACC0D6" transform="translate(675,555)"/>
<path d="M0,0 L23,0 L27,2 L26,4 L-3,3 L-3,1 Z " fill="#035FB7" transform="translate(656,648)"/>
<path d="M0,0 L5,1 L9,3 L2,9 L1,41 L4,42 L0,42 Z " fill="#ACC0D5" transform="translate(675,606)"/>
<path d="M0,0 L9,1 L25,5 L38,8 L34,10 L26,9 L10,5 L8,4 L8,2 L1,2 Z " fill="#B3D3E9" transform="translate(839,704)"/>
<path d="M0,0 L1,0 L2,23 L2,38 L0,36 L-3,14 L-2,10 L0,10 Z " fill="#35C0F5" transform="translate(459,612)"/>
<path d="M0,0 L7,0 L10,3 L10,10 L6,14 L1,14 L2,12 L0,10 L4,9 L4,4 L0,2 Z " fill="#101A31" transform="translate(679,543)"/>
<path d="M0,0 L3,4 L3,12 L1,10 L-3,15 L-5,19 L-5,24 L-8,24 L-8,18 Z " fill="#0076CC" transform="translate(913,549)"/>
<path d="M0,0 L1,0 L1,38 L0,38 L-2,25 L-2,9 Z " fill="#0A75C3" transform="translate(431,574)"/>
<path d="M0,0 L6,0 L7,2 L2,5 L2,10 L3,13 L5,14 L-1,14 L-4,10 L-4,4 Z " fill="#131B2E" transform="translate(650,594)"/>
<path d="M0,0 L7,0 L22,4 L24,6 L10,6 L1,3 Z " fill="#46E2F2" transform="translate(700,161)"/>
<path d="M0,0 L4,1 L2,2 L1,4 L-2,3 L-5,3 L-5,6 L-2,7 L-18,12 L-20,11 L-21,9 L-13,5 Z " fill="#1A2436" transform="translate(715,717)"/>
<path d="M0,0 L5,0 L6,3 L10,5 L-1,7 L-9,7 L-8,5 L-12,3 L-3,2 L0,2 Z " fill="#030A1A" transform="translate(741,711)"/>
<path d="M0,0 L9,1 L12,3 L11,8 L4,9 L-1,6 L-2,4 L3,4 L4,1 Z " fill="#1A2031" transform="translate(612,1107)"/>
<path d="M0,0 L11,1 L15,3 L12,3 L13,7 L-2,6 L-1,2 Z " fill="#0E182C" transform="translate(800,708)"/>
<path d="M0,0 L1,4 L3,4 L5,11 L8,13 L10,19 L16,29 L20,36 L17,35 L6,17 L-2,3 Z " fill="#00358F" transform="translate(340,623)"/>
<path d="M0,0 L6,1 L6,10 L0,9 L-6,6 L-1,2 Z " fill="#1A5AAE" transform="translate(614,634)"/>
<path d="M0,0 L25,0 L35,2 L35,3 L21,3 L-5,2 L-5,1 Z " fill="#49ECF5" transform="translate(645,155)"/>
<path d="M0,0 L5,1 L15,11 L12,12 L-2,5 L-3,3 L-1,3 Z " fill="#072070" transform="translate(458,744)"/>
<path d="M0,0 L23,1 L28,4 L27,7 L26,5 L21,4 L2,4 L-3,5 L-5,8 L-4,3 L0,2 Z " fill="#0381D6" transform="translate(656,543)"/>
<path d="M0,0 L4,0 L4,18 L0,19 Z " fill="#DBDDE1" transform="translate(329,1093)"/>
<path d="M0,0 L4,1 L3,15 L3,25 L0,25 Z " fill="#FBFBFB" transform="translate(979,1094)"/>
<path d="M0,0 L6,0 L2,2 L1,4 L5,5 L-2,7 L-6,11 L-6,9 L-9,9 L-9,19 L-10,19 L-10,8 L-6,3 Z " fill="#DDDEE1" transform="translate(949,1092)"/>
<path d="M0,0 L6,1 L9,5 L9,7 L11,8 L7,11 L4,11 L1,6 L-2,1 Z " fill="#AABED3" transform="translate(867,338)"/>
<path d="M0,0 L5,1 L5,5 L3,7 L3,11 L1,11 L1,13 L-4,12 L-3,5 Z " fill="#091122" transform="translate(885,324)"/>
<path d="M0,0 L24,0 L32,2 L28,4 L18,6 L14,6 L15,3 L20,3 L20,1 L0,1 Z " fill="#001349" transform="translate(763,742)"/>
<path d="M0,0 L8,0 L8,1 L-7,5 L-14,7 L-25,9 L-32,10 L-29,8 L-5,1 Z " fill="#97B2C8" transform="translate(757,699)"/>
<path d="M0,0 L3,0 L3,40 L2,40 L0,9 Z " fill="#16D4FB" transform="translate(458,514)"/>
<path d="M0,0 L31,3 L37,5 L37,6 L29,6 L16,4 L3,3 L0,2 Z " fill="#02A9E1" transform="translate(644,246)"/>
<path d="M0,0 L1,0 L1,30 L-1,31 L-3,26 L-3,15 L-1,15 Z " fill="#46BDF2" transform="translate(884,621)"/>
<path d="M0,0 L2,0 L2,2 L0,2 L2,8 L2,22 L1,22 L0,41 L-1,41 L-1,1 Z " fill="#14192A" transform="translate(922,321)"/>
<path d="M0,0 L2,0 L5,16 L6,23 L4,24 L1,11 L-1,10 L-3,5 L0,4 Z " fill="#1C5BAE" transform="translate(418,656)"/>
<path d="M0,0 L1,0 L2,16 L-1,19 L0,23 L-1,26 L-2,26 L-2,21 L-4,21 L-3,13 Z " fill="#007DD6" transform="translate(313,398)"/>
<path d="M0,0 L28,0 L28,1 L20,3 L20,4 L9,4 L6,2 L0,1 Z " fill="#1EB9F3" transform="translate(1041,1029)"/>
<path d="M0,0 L1,3 L-1,7 L0,9 L-13,13 L-17,14 L-12,9 Z " fill="#163259" transform="translate(1035,250)"/>
<path d="M0,0 L18,0 L31,1 L31,3 L24,4 L15,3 L9,2 L0,2 Z " fill="#17D2F8" transform="translate(648,157)"/>
<path d="M0,0 L14,2 L9,8 L7,7 L10,3 L0,3 L-1,5 L-3,5 L-3,7 L-13,7 L-10,4 L-1,1 Z " fill="#91ACC7" transform="translate(1000,215)"/>
<path d="M0,0 L2,1 L7,12 L2,12 L-3,5 L-3,3 L-9,3 L-9,2 Z " fill="#E7E8EB" transform="translate(853,1107)"/>
<path d="M0,0 L17,0 L17,3 L3,3 L3,10 L0,6 Z " fill="#F0F1F2" transform="translate(422,1094)"/>
<path d="M0,0 L9,2 L19,5 L19,8 L21,8 L21,10 L11,7 L4,4 L0,2 Z " fill="#0E2777" transform="translate(520,778)"/>
<path d="M0,0 L6,0 L8,7 L8,0 L9,0 L9,9 L-1,6 L-1,1 Z " fill="#1D76C7" transform="translate(611,587)"/>
<path d="M0,0 L11,0 L15,3 L14,6 L1,4 L-1,3 Z " fill="#E1E2E5" transform="translate(912,1093)"/>
<path d="M0,0 L3,0 L6,4 L13,5 L9,8 L18,8 L17,10 L6,10 L-1,4 Z " fill="#C4C7CD" transform="translate(711,1110)"/>
<path d="M0,0 L4,1 L-17,9 L-20,9 L-20,7 L-24,6 Z " fill="#C2D8F3" transform="translate(747,757)"/>
<path d="M0,0 L2,1 L1,5 L-9,15 L-13,17 L-15,18 L-13,14 L-6,7 Z " fill="#04C9F1" transform="translate(404,246)"/>
<path d="M0,0 L5,0 L11,10 L8,14 L0,1 Z " fill="#E1E2E6" transform="translate(675,1093)"/>
<path d="M0,0 L8,0 L10,2 L0,3 L-7,9 L-10,17 L-11,17 L-11,10 L-4,2 Z " fill="#00193A" transform="translate(721,1012)"/>
<path d="M0,0 L10,0 L37,2 L37,3 L19,4 L16,3 L11,4 L6,2 L0,2 Z " fill="#052383" transform="translate(561,788)"/>
<path d="M0,0 L7,0 L10,4 L10,6 L13,7 L0,6 L-2,4 L0,4 Z " fill="#040A18" transform="translate(596,712)"/>
<path d="M0,0 L22,1 L27,3 L26,6 L26,4 L0,3 Z " fill="#0A63B1" transform="translate(656,594)"/>
<path d="M0,0 L2,4 L3,7 L1,11 L-6,9 L-6,5 Z " fill="#3F628F" transform="translate(1045,278)"/>
<path d="M0,0 L2,1 L2,5 L-2,9 L-2,11 L0,12 L0,14 L-7,13 L-8,8 L-3,3 Z M-7,11 Z " fill="#C8DAEA" transform="translate(1041,275)"/>
<path d="M0,0 L7,1 L10,3 L3,5 L-17,10 L-22,10 L-20,8 L1,3 L3,3 L3,1 Z " fill="#08B7F7" transform="translate(567,160)"/>
<path d="M0,0 L1,4 L8,4 L8,9 L6,10 L-1,10 L-3,5 L-1,4 Z " fill="#081020" transform="translate(514,1105)"/>
<path d="M0,0 L1,4 L-3,16 L-5,18 L-6,17 L-6,6 L-1,3 Z " fill="#0C101B" transform="translate(899,918)"/>
<path d="M0,0 L7,1 L10,3 L9,7 L0,6 L-3,4 L-3,1 Z " fill="#172034" transform="translate(851,720)"/>
<path d="M0,0 L8,1 L8,3 L10,4 L7,8 L-1,7 L1,2 Z " fill="#058DE6" transform="translate(587,528)"/>
<path d="M0,0 L12,0 L12,11 L11,11 L10,4 L9,4 L8,9 L7,9 L7,4 L0,4 Z " fill="#C1C4CB" transform="translate(515,1105)"/>
<path d="M0,0 L10,0 L10,2 L5,3 L5,6 L-3,8 L-7,7 L-3,4 L-1,4 Z " fill="#001965" transform="translate(773,743)"/>
<path d="M0,0 L7,0 L18,3 L24,6 L20,7 L11,4 L7,5 L1,6 L2,3 L4,3 L4,1 Z " fill="#C9DEED" transform="translate(591,704)"/>
<path d="M0,0 L4,0 L4,10 L2,10 L2,8 L-2,6 L-5,3 L-5,1 Z " fill="#BAD3EB" transform="translate(655,660)"/>
<path d="M0,0 L1,0 L1,7 L16,7 L16,10 L0,10 Z " fill="#E2E3E6" transform="translate(876,1108)"/>
<path d="M0,0 L1,0 L1,5 L-5,10 L-11,9 L-11,8 L-16,7 L-16,6 L-7,5 Z " fill="#E1E3E6" transform="translate(1033,1109)"/>
<path d="M0,0 L5,0 L-2,12 L-6,11 L-4,6 Z " fill="#E0E2E6" transform="translate(274,1093)"/>
<path d="M0,0 L9,1 L10,4 L14,7 L7,7 L1,5 L1,3 L-2,2 Z " fill="#051024" transform="translate(859,723)"/>
<path d="M0,0 L4,2 L15,2 L15,5 L7,5 L7,6 L12,7 L12,8 L4,8 L-2,3 L-2,1 Z " fill="#CBCED3" transform="translate(507,1112)"/>
<path d="M0,0 L8,1 L13,3 L10,4 L10,6 L13,7 L5,7 L5,5 L1,4 Z " fill="#030F25" transform="translate(838,717)"/>
<path d="M0,0 L5,2 L19,11 L20,13 L15,11 L3,5 L-2,3 Z " fill="#BDC2CA" transform="translate(628,717)"/>
<path d="M0,0 L43,0 L48,1 L48,2 L40,3 L40,1 L0,1 Z " fill="#A1BBCE" transform="translate(765,698)"/>
<path d="M0,0 L3,1 L0,3 L-11,5 L-20,7 L-25,7 L-22,5 L-14,4 L-14,2 Z " fill="#0170CB" transform="translate(720,729)"/>
<path d="M0,0 L5,1 L10,2 L5,7 L0,9 Z " fill="#ABC5E0" transform="translate(675,659)"/>
<path d="M0,0 L7,0 L8,12 L9,14 L7,17 L5,17 L4,3 L4,1 Z " fill="#B8CADC" transform="translate(1039,257)"/>
<path d="M0,0 L6,1 L20,7 L20,9 L11,8 L7,7 L7,3 L2,2 Z " fill="#4DE9F5" transform="translate(750,175)"/>
<path d="M0,0 L6,2 L13,5 L12,7 L5,7 L-2,4 Z " fill="#DBDCE0" transform="translate(610,1113)"/>
<path d="M0,0 L9,0 L9,2 L2,2 L2,18 L0,18 Z " fill="#262B3C" transform="translate(1017,1097)"/>
<path d="M0,0 L31,1 L31,2 L2,3 L-14,3 L-14,2 L0,2 Z " fill="#03466F" transform="translate(200,1027)"/>
<path d="M0,0 L2,1 L-9,13 L-14,18 L-17,17 Z " fill="#001533" transform="translate(490,305)"/>
<path d="M0,0 L7,2 L7,4 L9,5 L9,7 L-3,4 L-8,3 L-8,1 Z " fill="#30DCF6" transform="translate(724,166)"/>
<path d="M0,0 L11,0 L9,4 L6,6 L0,6 Z " fill="#040919" transform="translate(879,1109)"/>
<path d="M0,0 L2,1 L-1,6 L-11,10 L-16,13 L-18,12 L-7,4 Z " fill="#C4C8CF" transform="translate(707,716)"/>
<path d="M0,0 L3,1 L3,15 L1,15 L1,13 L-1,13 L-1,1 Z " fill="#F3F4F5" transform="translate(291,1098)"/>
<path d="M0,0 L5,0 L10,9 L7,9 L6,11 L0,2 Z " fill="#E9EAED" transform="translate(255,1093)"/>
<path d="M0,0 L6,0 L6,1 L1,1 L1,4 L5,5 L-2,7 L-5,9 L-8,5 L-3,1 Z " fill="#C9CBD1" transform="translate(299,1092)"/>
<path d="M0,0 L2,1 L2,8 L0,14 L-2,13 L-3,5 Z " fill="#070D19" transform="translate(984,922)"/>
<path d="M0,0 L10,0 L12,2 L11,7 L9,9 L0,9 Z M1,1 L1,8 L9,8 L10,4 L6,3 L6,1 Z " fill="#2C3142" transform="translate(371,1097)"/>
<path d="M0,0 L5,2 L8,7 L8,11 L4,9 L0,4 Z " fill="#11162D" transform="translate(1063,261)"/>
<path d="M0,0 L3,3 L3,13 L-1,14 L-1,2 Z " fill="#EDEEF0" transform="translate(710,1098)"/>
<path d="M0,0 L4,2 L0,8 L-4,7 L-4,16 L-5,16 L-5,5 Z " fill="#D8D9DE" transform="translate(910,1095)"/>
<path d="M0,0 L4,2 L0,6 L-9,7 L-10,5 L-2,5 L-2,3 L-9,3 L-9,2 Z " fill="#CCCFD5" transform="translate(924,1113)"/>
<path d="M0,0 L1,0 L2,10 L15,11 L15,13 L2,14 L0,15 Z " fill="#FEFEFE" transform="translate(544,1094)"/>
<path d="M0,0 L5,0 L-1,10 L-5,9 L-3,4 Z " fill="#DDDFE3" transform="translate(694,1093)"/>
<path d="M0,0 L11,2 L9,3 L10,6 L0,7 L2,5 Z " fill="#0D1C35" transform="translate(604,713)"/>
<path d="M0,0 L27,0 L32,2 L32,3 L27,3 L26,2 L5,2 L4,3 L-1,3 Z " fill="#020410" transform="translate(652,553)"/>
<path d="M0,0 L2,1 L1,4 L5,5 L12,7 L10,9 L4,8 L-6,3 L-4,1 Z " fill="#BED0E0" transform="translate(659,479)"/>
<path d="M0,0 L1,2 L-5,10 L-12,19 L-15,17 L-2,3 Z " fill="#001938" transform="translate(799,278)"/>
<path d="M0,0 L11,0 L14,2 L14,4 L-11,4 L-11,3 L9,3 L9,1 L0,1 Z " fill="#0787C9" transform="translate(202,1029)"/>
<path d="M0,0 L8,2 L13,5 L13,13 L4,12 L4,11 L12,10 L10,5 L3,3 L0,2 Z " fill="#0050AE" transform="translate(891,737)"/>
<path d="M0,0 L4,0 L4,8 L-1,6 L-5,1 Z " fill="#AFC7E2" transform="translate(655,607)"/>
<path d="M0,0 L3,1 L-2,5 L-14,12 L-16,10 Z " fill="#D5E0EA" transform="translate(706,462)"/>
<path d="M0,0 L3,3 L-7,10 L-9,10 L-8,6 Z " fill="#30DEF1" transform="translate(446,212)"/>
<path d="M0,0 L3,0 L4,12 L3,14 L1,14 L0,12 Z " fill="#F6F7F8" transform="translate(940,1101)"/>
<path d="M0,0 L10,0 L10,2 L-3,3 L-5,7 L-7,7 L-9,11 L-9,8 L-4,2 Z " fill="#001F43" transform="translate(463,1012)"/>
<path d="M0,0 L2,1 L8,17 L10,23 L8,23 L5,18 L0,3 Z " fill="#1B3883" transform="translate(424,680)"/>
<path d="M0,0 L3,3 L4,18 L2,16 L-2,5 Z " fill="#4BC2EE" transform="translate(455,628)"/>
<path d="M0,0 L19,0 L19,1 L1,2 L-3,4 L-3,6 L-7,5 L-5,1 Z " fill="#0059B7" transform="translate(658,546)"/>
<path d="M0,0 L4,1 L8,6 L8,10 L4,9 L0,3 Z " fill="#12182A" transform="translate(989,201)"/>
<path d="M0,0 L5,1 L6,5 L10,6 L8,10 L5,9 L2,4 L-2,1 Z " fill="#86A1BF" transform="translate(871,336)"/>
<path d="M0,0 L12,0 L16,3 L16,10 L14,11 L13,9 L13,3 L9,2 L0,1 Z " fill="#CFD1D8" transform="translate(1094,165)"/>
<path d="M0,0 L2,3 L0,8 L-2,16 L-4,20 L-6,20 L-4,11 Z " fill="#1D2335" transform="translate(1008,940)"/>
<path d="M0,0 L4,0 L4,2 L-4,2 L-6,6 L-16,5 L-16,4 Z " fill="#00369F" transform="translate(786,746)"/>
<path d="M0,0 L6,1 L7,8 L-5,5 L-1,4 L-2,2 Z " fill="#132744" transform="translate(882,728)"/>
<path d="M0,0 L2,1 L26,2 L26,3 L-8,4 L-8,3 L-1,2 Z " fill="#000007" transform="translate(771,694)"/>
<path d="M0,0 L4,0 L3,4 L1,5 L-8,5 L-8,2 Z " fill="#F2F3F4" transform="translate(726,1114)"/>
<path d="M0,0 L1,4 L-3,7 L-12,7 L-12,4 L-3,3 Z " fill="#F1F2F3" transform="translate(349,1112)"/>
<path d="M0,0 L2,2 L5,12 L6,17 L4,17 L-2,5 Z " fill="#003892" transform="translate(330,601)"/>
<path d="M0,0 L3,0 L3,4 L-4,7 L-7,7 L-6,3 Z " fill="#B7DCE5" transform="translate(458,510)"/>
<path d="M0,0 L4,3 L12,4 L12,5 L6,6 L2,8 L-2,4 Z " fill="#D0D1D7" transform="translate(944,1111)"/>
<path d="M0,0 L9,0 L10,4 L0,4 Z " fill="#0B1526" transform="translate(844,1099)"/>
<path d="M0,0 L8,1 L10,4 L-7,4 L-7,3 L-2,2 Z " fill="#030815" transform="translate(587,1088)"/>
<path d="M0,0 L6,0 L6,2 L1,5 L0,9 L-3,8 L-2,1 Z " fill="#060913" transform="translate(650,647)"/>
<path d="M0,0 L15,0 L21,5 L19,7 L16,5 L16,3 L14,3 L13,5 L12,2 L0,1 Z " fill="#DEDFE2" transform="translate(1013,1093)"/>
<path d="M0,0 L3,1 L1,3 L-10,7 L-14,6 L-12,4 Z " fill="#0D51CC" transform="translate(749,758)"/>
<path d="M0,0 L2,0 L5,12 L5,18 L2,16 L1,7 Z " fill="#01A2E5" transform="translate(914,546)"/>
<path d="M0,0 L3,1 L-8,10 L-10,9 L-8,5 Z " fill="#DCE5ED" transform="translate(1034,248)"/>
<path d="M0,0 L7,0 L8,2 L11,3 L10,6 L1,3 Z " fill="#1A2234" transform="translate(613,1099)"/>
<path d="M0,0 L2,2 L5,11 L4,15 L3,10 L1,10 L-1,7 L-3,8 L-1,2 Z " fill="#1D2130" transform="translate(938,883)"/>
<path d="M0,0 L0,3 L-9,8 L-8,5 L-6,5 L-6,3 L-12,2 L-12,1 Z " fill="#00277F" transform="translate(820,741)"/>
<path d="M0,0 L2,3 L5,12 L6,22 L4,19 L2,14 L0,4 Z " fill="#0183E7" transform="translate(936,628)"/>
<path d="M0,0 L2,4 L3,10 L2,11 L1,15 L-3,5 L-2,2 Z " fill="#0175D0" transform="translate(927,591)"/>
<path d="M0,0 L2,4 L3,19 L1,20 L-1,13 L0,7 Z " fill="#DFE9F2" transform="translate(1031,323)"/>
<path d="M0,0 L8,1 L14,10 L10,8 L6,5 L1,2 Z " fill="#24DCF8" transform="translate(821,215)"/>
<path d="M0,0 L22,0 L22,1 L4,2 L-4,3 L-6,1 Z " fill="#20D6F9" transform="translate(618,156)"/>
<path d="M0,0 L3,2 L9,3 L5,5 L3,5 L3,7 L10,7 L10,8 L2,8 L-1,6 Z " fill="#BBBEC6" transform="translate(753,1112)"/>
<path d="M0,0 L1,2 L0,9 L4,11 L6,13 L2,14 L-2,9 L-2,1 Z " fill="#20273A" transform="translate(509,1101)"/>
<path d="M0,0 L1,0 L1,26 L0,26 L-1,12 L-2,12 L-2,7 Z " fill="#020410" transform="translate(784,1093)"/>
<path d="M0,0 L7,0 L10,2 L9,5 L0,3 Z " fill="#F1F1F3" transform="translate(617,1093)"/>
<path d="M0,0 L1,2 L2,7 L4,10 L2,12 L-2,6 L-7,5 L-2,1 Z " fill="#6886A7" transform="translate(881,330)"/>
<path d="M0,0 L2,0 L0,4 L-9,13 L-11,13 L-11,11 L-9,11 L-7,7 Z " fill="#01A6F0" transform="translate(489,303)"/>
<path d="M0,0 L2,4 L-6,10 L-8,8 L-4,3 Z " fill="#17D9F3" transform="translate(436,219)"/>
<path d="M0,0 L2,4 L-1,7 L-4,11 L-5,9 L-9,12 L-7,8 Z M-4,7 Z M-10,12 Z M-11,13 Z M-12,14 Z " fill="#ADC3DD" transform="translate(1107,174)"/>
<path d="M0,0 L4,1 L4,3 L-2,5 L-9,5 L-6,2 Z " fill="#4FE8F2" transform="translate(524,172)"/>
<path d="M0,0 L8,0 L8,2 L6,3 L-6,4 L-8,2 Z " fill="#46DBE8" transform="translate(562,161)"/>
<path d="M0,0 L3,1 L7,8 L2,8 L-1,4 Z " fill="#ECECEF" transform="translate(381,1111)"/>
<path d="M0,0 L6,0 L8,2 L7,4 L9,4 L8,7 L3,4 L-1,3 Z " fill="#ECEDEE" transform="translate(721,1093)"/>
<path d="M0,0 L2,1 L-1,5 L2,10 L-1,10 L-6,4 L-6,2 Z " fill="#222634" transform="translate(573,923)"/>
<path d="M0,0 L8,1 L14,2 L14,3 L-5,3 L-3,1 Z " fill="#2A7DD1" transform="translate(680,766)"/>
<path d="M0,0 L18,0 L14,2 L0,3 Z " fill="#0A56B4" transform="translate(722,759)"/>
<path d="M0,0 L6,2 L11,4 L10,8 L2,7 L5,6 L4,2 L1,3 Z " fill="#151E2E" transform="translate(620,717)"/>
<path d="M0,0 L2,1 L1,2 L3,4 L-4,6 L-9,6 L-9,3 L-4,2 L-3,1 Z " fill="#030814" transform="translate(719,717)"/>
<path d="M0,0 L1,2 L3,2 L5,9 L5,17 L3,14 L0,4 Z " fill="#0070D3" transform="translate(942,651)"/>
<path d="M0,0 L1,2 L-2,13 L-5,15 L-4,8 L-2,1 Z " fill="#019AEA" transform="translate(326,364)"/>
<path d="M0,0 L6,0 L4,2 L-11,7 L-14,7 L-13,5 L-1,1 Z " fill="#01B5F5" transform="translate(573,255)"/>
<path d="M0,0 L5,0 L1,3 L-10,6 L-17,7 L-15,5 Z " fill="#09B7F7" transform="translate(537,171)"/>
<path d="M0,0 L1,0 L1,16 L3,16 L3,21 L0,21 L-1,17 Z " fill="#EEEEF0" transform="translate(750,1095)"/>
<path d="M0,0 L12,0 L11,3 L0,3 Z " fill="#0B192D" transform="translate(880,1099)"/>
<path d="M0,0 L12,0 L13,3 L16,5 L9,4 L0,1 Z " fill="#00399A" transform="translate(591,752)"/>
<path d="M0,0 L3,4 L5,10 L5,18 L3,15 L0,4 Z " fill="#0055B7" transform="translate(961,721)"/>
<path d="M0,0 L10,2 L11,3 L18,4 L18,6 L10,5 L0,2 Z " fill="#C7E0F0" transform="translate(829,702)"/>
<path d="M0,0 L1,2 L20,2 L20,3 L-9,4 L-9,3 L-1,3 Z " fill="#0246A5" transform="translate(773,627)"/>
<path d="M0,0 L3,4 L4,14 L1,13 L1,8 L-1,7 Z " fill="#008FE8" transform="translate(923,580)"/>
<path d="M0,0 L3,1 L3,17 L1,16 L0,13 Z " fill="#A9BCD0" transform="translate(1045,307)"/>
<path d="M0,0 L5,3 L8,8 L8,13 L6,14 L4,12 L6,12 L3,5 L-2,1 Z " fill="#C1C4CD" transform="translate(991,199)"/>
<path d="M0,0 L1,0 L1,12 L-3,11 L-2,2 L0,2 Z " fill="#FAFAFB" transform="translate(688,1107)"/>
<path d="M0,0 L3,0 L2,8 L1,20 L0,20 Z " fill="#FCFCFD" transform="translate(485,1094)"/>
<path d="M0,0 L2,2 L4,7 L11,15 L8,15 L-2,3 Z " fill="#003087" transform="translate(371,671)"/>
<path d="M0,0 L6,2 L10,4 L10,9 L3,4 L0,3 Z " fill="#CCEAEF" transform="translate(879,510)"/>
<path d="M0,0 L10,4 L15,7 L11,8 L-1,2 Z " fill="#01A3E3" transform="translate(721,264)"/>
<path d="M0,0 L4,2 L1,4 L-8,4 L-8,1 Z " fill="#F8F8F9" transform="translate(956,1115)"/>
<path d="M0,0 L2,0 L2,2 L-3,6 L-8,7 L-10,5 Z " fill="#4FE0EB" transform="translate(492,185)"/>
<path d="M0,0 L11,3 L13,5 L2,4 L-2,2 L0,2 Z " fill="#59ECF6" transform="translate(731,168)"/>
<path d="M0,0 L3,0 L1,4 L-1,9 L-4,9 L-4,3 Z " fill="#EFEEF1" transform="translate(995,1104)"/>
<path d="M0,0 L2,0 L2,6 L-1,9 L-6,8 L-4,6 L-2,2 L-2,5 L0,5 Z " fill="#DBDDE1" transform="translate(858,1098)"/>
<path d="M0,0 L1,0 L3,8 L6,9 L6,11 L8,12 L4,13 L0,8 Z " fill="#292E3D" transform="translate(713,1102)"/>
<path d="M0,0 L1,0 L2,7 L1,21 L-2,24 L-3,22 L-2,20 L0,20 Z " fill="#0C1627" transform="translate(353,1093)"/>
<path d="M0,0 L4,1 L5,4 L4,5 L4,16 L3,16 L2,6 L0,4 Z " fill="#EEEEF1" transform="translate(262,1102)"/>
<path d="M0,0 L8,0 L9,2 L-1,3 L-2,4 L-7,4 L-4,1 Z " fill="#001A3D" transform="translate(554,1012)"/>
<path d="M0,0 L7,0 L3,2 L-1,5 L4,6 L4,7 L-4,7 L-4,4 Z " fill="#012D89" transform="translate(702,751)"/>
<path d="M0,0 L7,0 L9,2 L9,5 L4,4 L0,2 Z " fill="#0E1527" transform="translate(679,543)"/>
<path d="M0,0 L1,0 L1,8 L-6,8 L-10,6 L-3,5 L-3,7 L-1,6 L-1,2 L-3,1 Z " fill="#2CA2ED" transform="translate(829,529)"/>
<path d="M0,0 L5,0 L12,4 L13,7 L7,5 L0,2 Z " fill="#2CDFF8" transform="translate(783,192)"/>
<path d="M0,0 L6,0 L7,2 L4,4 L3,9 L0,9 Z " fill="#202733" transform="translate(371,1110)"/>
<path d="M0,0 L11,1 L11,2 L3,2 L3,11 L0,8 Z " fill="#E3E4E7" transform="translate(368,1095)"/>
<path d="M0,0 L1,0 L2,11 L3,13 L1,18 L-2,18 L-1,14 Z " fill="#012F5C" transform="translate(750,1023)"/>
<path d="M0,0 L6,0 L6,3 L11,3 L8,5 L3,6 L0,1 Z " fill="#CCDEF3" transform="translate(707,766)"/>
<path d="M0,0 L3,1 L2,3 L-4,5 L-11,5 L-9,3 Z " fill="#0E50C7" transform="translate(732,764)"/>
<path d="M0,0 L2,0 L3,2 L3,11 L1,12 L0,8 Z " fill="#B2E6F7" transform="translate(885,684)"/>
<path d="M0,0 L2,0 L5,5 L5,7 L7,8 L1,8 L0,7 Z " fill="#0E1525" transform="translate(648,600)"/>
<path d="M0,0 L11,3 L17,5 L13,6 L-2,2 Z " fill="#01B7F3" transform="translate(684,251)"/>
<path d="M0,0 L9,1 L9,2 L-10,4 L-8,3 L-8,1 L-1,1 Z " fill="#0E3848" transform="translate(592,154)"/>
<path d="M0,0 L8,0 L5,3 L-2,6 L-4,6 L-2,2 Z " fill="#191F2F" transform="translate(914,1097)"/>
<path d="M0,0 L7,0 L7,1 L2,2 L6,5 L-2,7 L-2,1 Z " fill="#B9BCC4" transform="translate(615,1092)"/>
<path d="M0,0 L3,0 L2,3 L-7,5 L-7,3 L-9,2 Z " fill="#1953C1" transform="translate(680,780)"/>
<path d="M0,0 L5,1 L8,2 L9,6 L3,5 L3,3 L1,3 Z " fill="#040915" transform="translate(616,717)"/>
<path d="M0,0 L2,0 L3,8 L1,12 L0,11 Z " fill="#CBEEFB" transform="translate(883,709)"/>
<path d="M0,0 L2,1 L-3,6 L-6,9 L-11,10 L-6,5 Z " fill="#001A37" transform="translate(507,291)"/>
<path d="M0,0 L8,1 L12,5 L9,6 L9,4 L0,2 Z " fill="#27DDF8" transform="translate(764,183)"/>
<path d="M0,0 L1,0 L2,9 L3,11 L2,22 L1,22 L0,13 Z " fill="#EDEEEF" transform="translate(788,1097)"/>
<path d="M0,0 L4,2 L5,4 L5,12 L3,12 L1,3 Z " fill="#292C38" transform="translate(306,1098)"/>
<path d="M0,0 L3,0 L3,9 L0,9 Z " fill="#FAFAFA" transform="translate(906,1102)"/>
<path d="M0,0 L1,0 L2,17 L4,20 L0,20 Z " fill="#020719" transform="translate(754,1093)"/>
<path d="M0,0 L7,0 L8,3 L1,4 L-1,3 Z " fill="#ECEDEF" transform="translate(912,1093)"/>
<path d="M0,0 L10,0 L10,2 L4,6 L5,3 L0,2 Z " fill="#03A4DF" transform="translate(911,1005)"/>
<path d="M0,0 L2,0 L1,11 L-1,10 L-3,5 L0,4 Z " fill="#1052A5" transform="translate(418,656)"/>
<path d="M0,0 L4,0 L3,5 L2,3 L-1,3 L-1,13 L-2,13 L-2,2 Z " fill="#D4D6DC" transform="translate(941,1098)"/>
<path d="M0,0 L1,0 L2,7 L0,12 L-3,11 Z " fill="#2C3447" transform="translate(928,910)"/>
<path d="M0,0 L2,1 L1,5 L-4,8 L-4,5 Z " fill="#1F293E" transform="translate(282,877)"/>
<path d="M0,0 L6,2 L10,5 L7,6 L-1,3 Z " fill="#11172C" transform="translate(486,764)"/>
<path d="M0,0 L5,0 L6,4 L9,6 L2,5 Z " fill="#050A19" transform="translate(838,717)"/>
<path d="M0,0 L4,1 L7,4 L7,6 L0,5 L0,3 L-2,1 Z " fill="#19263C" transform="translate(728,713)"/>
<path d="M0,0 L2,4 L3,6 L3,14 L1,11 L-1,6 Z " fill="#005ABF" transform="translate(958,706)"/>
<path d="M0,0 L4,1 L-2,3 L-5,4 L-6,6 L-9,2 Z " fill="#9CB2C6" transform="translate(513,701)"/>
<path d="M0,0 L1,3 L3,3 L4,6 L4,14 L2,12 L0,4 Z " fill="#006BD2" transform="translate(948,672)"/>
<path d="M0,0 L4,0 L4,2 L2,2 L2,7 L4,8 L0,10 Z " fill="#8AA6C6" transform="translate(675,555)"/>
<path d="M0,0 L4,0 L5,2 L5,9 L1,4 L-1,1 Z " fill="#BACBDE" transform="translate(867,340)"/>
<path d="M0,0 L2,1 L4,3 L6,6 L4,6 L4,8 L-1,7 Z " fill="#121E31" transform="translate(882,329)"/>
<path d="M0,0 L0,3 L-9,13 L-11,12 Z " fill="#01ADF1" transform="translate(788,289)"/>
<path d="M0,0 L2,1 L-6,8 L-9,8 L-8,5 Z " fill="#2E4468" transform="translate(1083,178)"/>
<path d="M0,0 L12,2 L12,4 L3,4 L0,2 Z " fill="#F4F5F6" transform="translate(910,1114)"/>
<path d="M0,0 L9,0 L9,3 L1,3 Z " fill="#F9F8FA" transform="translate(428,1105)"/>
<path d="M0,0 L1,0 L1,8 L-2,8 L-4,9 L-3,2 L-1,2 Z " fill="#EBECEF" transform="translate(1034,1103)"/>
<path d="M0,0 L1,0 L1,16 L3,16 L3,19 L0,19 Z " fill="#050A1B" transform="translate(335,1094)"/>
<path d="M0,0 L5,1 L4,4 L-5,5 L-2,4 Z " fill="#0360C4" transform="translate(652,769)"/>
<path d="M0,0 L4,2 L-1,4 L-11,5 L-8,3 L0,2 Z " fill="#0079E0" transform="translate(706,731)"/>
<path d="M0,0 L2,3 L-4,6 L-6,5 L-7,3 Z " fill="#111D38" transform="translate(701,723)"/>
<path d="M0,0 L8,0 L8,1 L1,1 L0,4 L-6,3 L-6,1 Z " fill="#0068B2" transform="translate(530,716)"/>
<path d="M0,0 L5,0 L7,5 L-3,3 L0,2 Z " fill="#DBDDE1" transform="translate(606,710)"/>
<path d="M0,0 L9,1 L16,3 L13,5 L8,4 L8,2 L1,2 Z " fill="#A2C4DA" transform="translate(839,704)"/>
<path d="M0,0 L2,2 L3,8 L2,13 L0,11 Z " fill="#84D1F2" transform="translate(881,662)"/>
<path d="M0,0 L2,2 L-8,8 L-10,6 Z " fill="#C1D5E7" transform="translate(680,478)"/>
<path d="M0,0 L2,0 L1,5 L-1,11 L-3,13 L-2,6 Z " fill="#0098F5" transform="translate(317,389)"/>
<path d="M0,0 L5,1 L11,5 L11,7 L5,5 Z " fill="#26DEF8" transform="translate(805,204)"/>
<path d="M0,0 L8,0 L7,3 L-1,3 Z " fill="#EDEEEF" transform="translate(1018,1094)"/>
<path d="M0,0 L2,4 L0,11 L-3,11 L-2,6 Z " fill="#1F2739" transform="translate(1012,929)"/>
<path d="M0,0 L2,3 L1,7 L-3,11 L-2,4 Z " fill="#060B19" transform="translate(937,887)"/>
<path d="M0,0 L10,1 L10,2 L-3,4 L-2,2 L0,2 Z " fill="#1A70CC" transform="translate(665,768)"/>
<path d="M0,0 L2,0 L6,4 L12,7 L12,8 L7,8 L0,2 Z " fill="#0175D3" transform="translate(642,738)"/>
<path d="M0,0 L13,1 L10,2 L9,4 L2,3 Z " fill="#0056B1" transform="translate(802,716)"/>
<path d="M0,0 L7,2 L12,4 L8,5 L-1,2 Z " fill="#ABCDE1" transform="translate(603,706)"/>
<path d="M0,0 L5,1 L2,4 L-3,5 L-5,8 L-4,3 L0,2 Z " fill="#086CC7" transform="translate(656,543)"/>
<path d="M0,0 L6,0 L4,3 L-4,5 Z " fill="#22426B" transform="translate(994,215)"/>
<path d="M0,0 L7,0 L9,2 L9,5 L4,3 Z " fill="#32E5F7" transform="translate(796,199)"/>
<path d="M0,0 L1,4 L-4,10 L-6,8 Z " fill="#0F1A32" transform="translate(1103,188)"/>
<path d="M0,0 L2,3 L2,10 L-1,10 Z " fill="#F2F2F3" transform="translate(423,1109)"/>
<path d="M0,0 L4,5 L3,17 L2,17 L1,5 L-1,1 Z " fill="#10192A" transform="translate(260,1102)"/>
<path d="M0,0 L2,1 L-1,9 L-3,8 L-3,3 Z " fill="#E0E2E6" transform="translate(612,1094)"/>
<path d="M0,0 L1,0 L1,7 L-3,10 L-2,1 Z " fill="#F9FAFA" transform="translate(385,1097)"/>
<path d="M0,0 L10,1 L14,3 L3,3 Z " fill="#0180D9" transform="translate(534,724)"/>
<path d="M0,0 L6,0 L6,2 L11,2 L11,3 L0,3 Z " fill="#01102E" transform="translate(569,711)"/>
<path d="M0,0 L4,0 L4,3 L-1,5 L-4,4 Z " fill="#151A26" transform="translate(700,703)"/>
<path d="M0,0 L5,1 L6,6 L4,6 L4,3 L-2,3 L-2,1 Z " fill="#212534" transform="translate(896,334)"/>
<path d="M0,0 L2,1 L2,5 L-2,4 L-6,7 L-8,6 Z " fill="#DFE0E5" transform="translate(1060,260)"/>
<path d="M0,0 L4,2 L4,4 L2,5 L-4,5 Z " fill="#0C1120" transform="translate(1024,1110)"/>
<path d="M0,0 L2,2 L1,4 L0,14 L-1,14 L-2,3 Z " fill="#2E3448" transform="translate(709,1096)"/>
<path d="M0,0 L5,0 L7,4 L2,5 Z " fill="#D9DADF" transform="translate(255,1093)"/>
<path d="M0,0 L7,0 L8,3 L0,3 Z " fill="#EBEDEF" transform="translate(576,1094)"/>
<path d="M0,0 L2,3 L5,13 L3,12 L3,9 L0,8 Z " fill="#333848" transform="translate(957,936)"/>
<path d="M0,0 Z M-2,1 L0,3 L-1,9 L-3,11 L-4,8 Z " fill="#0E182D" transform="translate(595,898)"/>
<path d="M0,0 L3,0 L3,3 L5,3 L5,5 L-5,2 L-5,1 Z " fill="#031F6A" transform="translate(536,783)"/>
<path d="M0,0 L14,0 L14,1 L7,1 L7,3 L0,1 Z " fill="#005BBA" transform="translate(635,762)"/>
<path d="M0,0 L4,1 L5,2 L5,8 L3,9 L2,2 L0,2 Z " fill="#1C202D" transform="translate(684,595)"/>
<path d="M0,0 L2,3 L1,7 L-1,9 L-3,5 L-3,2 L-1,2 Z " fill="#0073CB" transform="translate(923,576)"/>
<path d="M0,0 L2,0 L3,10 L0,9 Z " fill="#007CD5" transform="translate(414,512)"/>
<path d="M0,0 L5,2 L5,5 L1,6 Z " fill="#2E3148" transform="translate(1063,261)"/>
<path d="M0,0 L2,0 L2,2 L-1,2 L-2,5 L-6,4 L-7,2 Z " fill="#49DAE4" transform="translate(533,169)"/>
<path d="M0,0 L4,1 L3,5 L-1,4 Z " fill="#C2C6CD" transform="translate(641,1115)"/>
<path d="M0,0 L4,2 L2,6 L-3,4 L-1,3 Z " fill="#DDDEE2" transform="translate(959,1111)"/>
<path d="M0,0 L1,4 L0,5 L-7,5 L-4,1 Z " fill="#060A16" transform="translate(520,1110)"/>
<path d="M0,0 L2,1 L1,4 L-3,5 L-3,3 L-9,3 L-9,2 Z " fill="#CBCED4" transform="translate(853,1107)"/>
<path d="M0,0 L3,1 L4,8 L2,10 L0,5 Z " fill="#DADDE2" transform="translate(311,1104)"/>
<path d="M0,0 L2,2 L1,6 L-1,7 L-2,2 L-5,1 Z " fill="#21252F" transform="translate(993,1098)"/>
<path d="M0,0 L5,0 L4,3 L8,4 L-1,6 L1,2 Z " fill="#D6D8DD" transform="translate(716,1093)"/>
<path d="M0,0 L4,0 L3,3 L-3,5 L-4,2 Z " fill="#1A2336" transform="translate(372,962)"/>
<path d="M0,0 L2,3 L4,11 L-1,7 Z " fill="#313749" transform="translate(962,950)"/>
<path d="M0,0 L2,4 L2,7 L-1,7 L-2,11 L-3,9 Z M2,3 Z " fill="#394155" transform="translate(915,948)"/>
<path d="M0,0 L7,0 L4,3 L-3,2 Z " fill="#2663CB" transform="translate(752,755)"/>
<path d="M0,0 L7,0 L7,2 L3,4 L1,8 L1,2 Z " fill="#0C1D38" transform="translate(649,543)"/>
<path d="M0,0 L2,1 L-3,13 L-4,9 L-4,6 L-2,6 Z " fill="#019EF3" transform="translate(332,352)"/>
<path d="M0,0 L1,3 L-3,7 L-7,6 Z " fill="#7A99BC" transform="translate(1045,278)"/>
<path d="M0,0 L2,1 L2,5 L0,8 L-3,7 L-2,2 Z " fill="#D4E3EF" transform="translate(1041,275)"/>
<path d="M0,0 L2,0 L3,3 L1,5 L-8,5 L-8,4 L-2,3 L0,2 Z " fill="#C1C5CC" transform="translate(306,1115)"/>
<path d="M0,0 L8,0 L8,3 L0,3 Z " fill="#FBFAFB" transform="translate(298,1116)"/>
<path d="M0,0 L1,0 L1,9 L-3,9 L-3,5 L-1,5 Z " fill="#E8EAED" transform="translate(370,1110)"/>
<path d="M0,0 L3,3 L4,8 L1,9 L-1,1 Z " fill="#0C152A" transform="translate(998,1094)"/>
<path d="M0,0 L4,0 L4,3 L8,4 L-1,6 L1,2 Z " fill="#D0D2D7" transform="translate(510,1093)"/>
<path d="M0,0 L6,0 L2,2 L1,4 L5,5 L0,5 L0,2 L-4,3 L-3,1 Z " fill="#AAADB6" transform="translate(949,1092)"/>
<path d="M0,0 L2,4 L1,7 L-1,7 L-2,11 L-3,9 Z M2,2 Z " fill="#BABDC5" transform="translate(911,886)"/>
<path d="M0,0 L2,4 L2,6 L0,6 L-1,10 L-3,11 Z " fill="#CCCFD5" transform="translate(922,854)"/>
<path d="M0,0 L12,1 L12,2 L1,3 L-1,1 Z " fill="#203A8C" transform="translate(554,786)"/>
<path d="M0,0 L9,3 L5,4 L-3,2 Z " fill="#021C41" transform="translate(851,723)"/>
<path d="M0,0 L5,0 L6,2 L-3,4 Z " fill="#F1F1F4" transform="translate(709,716)"/>
<path d="M0,0 L9,1 L9,4 L4,3 Z " fill="#D3DFE8" transform="translate(612,711)"/>
<path d="M0,0 L10,2 L8,5 L2,3 Z " fill="#0D1325" transform="translate(620,711)"/>
<path d="M0,0 L3,1 L6,6 L5,9 L2,4 L-2,1 Z " fill="#95AEC9" transform="translate(871,336)"/>
<path d="M0,0 L2,0 L0,4 L-5,8 L-4,4 Z " fill="#00A7F3" transform="translate(475,317)"/>
<path d="M0,0 L2,1 L-6,6 L-8,6 L-8,4 Z " fill="#01B1F3" transform="translate(531,274)"/>
<path d="M0,0 L1,4 L-3,6 L-7,4 L-3,2 L0,3 Z " fill="#D6DEE8" transform="translate(1072,269)"/>
<path d="M0,0 L3,1 L3,3 L-6,6 L-1,1 Z " fill="#37577F" transform="translate(1024,258)"/>
<path d="M0,0 L7,0 L8,3 L0,3 Z " fill="#FBFAFB" transform="translate(337,1116)"/>
<path d="M0,0 L2,3 L-3,8 L-3,5 Z M2,1 Z " fill="#1C2336" transform="translate(696,1097)"/>
<path d="M0,0 L5,2 L7,5 L4,6 L-1,1 Z " fill="#1E263D" transform="translate(958,1092)"/>
<path d="M0,0 L1,0 L1,12 L-2,12 L-1,8 Z " fill="#07A7F8" transform="translate(576,1036)"/>
<path d="M0,0 L5,0 L4,4 L0,5 Z " fill="#0AA8F4" transform="translate(559,1028)"/>
<path d="M0,0 L1,4 L-2,11 L-4,9 L-3,6 L-1,3 Z " fill="#070A17" transform="translate(909,888)"/>
<path d="M0,0 L11,0 L11,1 L3,2 L1,4 L-1,4 Z " fill="#E1E4E8" transform="translate(924,849)"/>
<path d="M0,0 L8,1 L4,5 L2,5 L2,3 L0,3 Z " fill="#143082" transform="translate(539,783)"/>
<path d="M0,0 L2,0 L2,2 L-2,4 L-8,3 L-4,1 Z " fill="#1F59C5" transform="translate(692,777)"/>
<path d="M0,0 L4,2 L-5,4 L-6,2 Z " fill="#0C51C6" transform="translate(718,769)"/>
<path d="M0,0 L2,1 L4,10 L1,9 Z " fill="#004EB7" transform="translate(966,740)"/>
<path d="M0,0 L7,1 L3,3 L-4,3 Z " fill="#001248" transform="translate(788,743)"/>
<path d="M0,0 L2,1 L-2,2 L-2,4 L-9,5 L-5,2 Z " fill="#C2CCD6" transform="translate(723,709)"/>
<path d="M0,0 L9,0 L14,1 L14,2 L6,3 L6,1 L0,1 Z " fill="#A1B2C3" transform="translate(799,698)"/>
<path d="M0,0 L6,0 L6,2 L0,4 L0,2 L-2,1 Z " fill="#121624" transform="translate(650,647)"/>
<path d="M0,0 L2,0 L3,6 L-1,7 Z " fill="#080C16" transform="translate(685,599)"/>
<path d="M0,0 L3,1 L-2,5 L-5,6 L-6,4 Z " fill="#C8D9E7" transform="translate(696,468)"/>
<path d="M0,0 L3,2 L-3,5 L-7,4 Z " fill="#1B2234" transform="translate(972,293)"/>
<path d="M0,0 L7,0 L7,8 L5,4 L4,1 Z " fill="#859FB7" transform="translate(1039,257)"/>
<path d="M0,0 L2,1 L-1,6 L-5,7 L-1,1 Z " fill="#09DAFA" transform="translate(409,242)"/>
<path d="M0,0 L2,2 L-4,6 L-6,6 L-6,3 Z " fill="#22E0FA" transform="translate(443,216)"/>
<path d="M0,0 L7,0 L8,2 L1,3 Z " fill="#54E4F0" transform="translate(700,161)"/>
<path d="M0,0 L3,3 L3,5 L-2,5 L-3,2 L0,2 Z " fill="#DDDFE2" transform="translate(803,1114)"/>
<path d="M0,0 L3,1 L0,3 L-2,8 L-4,7 L-3,3 Z " fill="#F2F2F3" transform="translate(510,1094)"/>
<path d="M0,0 L2,4 L-3,8 L-5,7 L-1,3 Z " fill="#028DDA" transform="translate(740,1036)"/>
<path d="M0,0 L3,1 L2,7 L0,6 L-1,2 Z " fill="#161B2E" transform="translate(982,929)"/>
<path d="M0,0 L3,0 L1,7 L-1,7 Z " fill="#12192B" transform="translate(1016,918)"/>
<path d="M0,0 L3,0 L2,4 L-2,7 Z " fill="#D8DAE1" transform="translate(1012,849)"/>
<path d="M0,0 L3,0 L3,2 L-1,4 L-6,3 L-3,1 Z " fill="#1855C4" transform="translate(708,772)"/>
<path d="M0,0 L4,1 L4,3 L-1,4 L-1,2 L-5,1 Z " fill="#B3CFF0" transform="translate(728,762)"/>
<path d="M0,0 L2,1 L1,3 L-4,5 L-7,4 Z " fill="#066BB9" transform="translate(693,729)"/>
<path d="M0,0 L8,0 L8,1 L-1,3 L-6,2 L-6,1 Z " fill="#002957" transform="translate(744,727)"/>
<path d="M0,0 L4,2 L3,4 L-4,5 L-2,4 L-2,2 L0,2 Z " fill="#F7F7F8" transform="translate(721,711)"/>
<path d="M0,0 L8,0 L8,1 L2,1 L2,3 L-6,2 L-6,1 Z " fill="#3D4453" transform="translate(519,709)"/>
<path d="M0,0 L7,1 L7,4 L-1,3 Z " fill="#1D2C44" transform="translate(583,698)"/>
<path d="M0,0 L3,0 L2,3 L-3,4 L-5,2 Z " fill="#247BCF" transform="translate(722,584)"/>
<path d="M0,0 L4,1 L5,5 L0,5 Z " fill="#005DB9" transform="translate(679,547)"/>
<path d="M0,0 L3,0 L6,1 L0,5 L-1,1 Z " fill="#DDDEE1" transform="translate(914,363)"/>
<path d="M0,0 L2,0 L3,4 L0,5 L-4,3 Z " fill="#202635" transform="translate(1003,273)"/>
<path d="M0,0 L4,1 L1,3 L-6,4 L-2,1 Z " fill="#01203D" transform="translate(552,265)"/>
<path d="M0,0 L6,2 L9,5 L4,5 L3,2 L0,1 Z " fill="#56ECF5" transform="translate(792,194)"/>
<path d="M0,0 L7,1 L10,3 L6,4 L3,3 L3,1 Z " fill="#22C9ED" transform="translate(567,160)"/>
<path d="M0,0 L3,2 L8,3 L8,4 L0,4 L-2,3 L-2,1 Z " fill="#B4B9C1" transform="translate(336,1116)"/>
<path d="M0,0 L3,1 L4,3 L2,4 L1,10 L0,10 Z " fill="#050713" transform="translate(426,1109)"/>
<path d="M0,0 L1,0 L2,11 L-1,11 Z " fill="#F6F6F7" transform="translate(961,1102)"/>
<path d="M0,0 L3,1 L4,7 L1,6 Z " fill="#D0D3D8" transform="translate(311,1097)"/>
<path d="M0,0 L3,1 L5,6 L2,6 L-1,1 Z " fill="#EDEEF0" transform="translate(558,953)"/>
<path d="M0,0 L2,2 L1,7 L-2,6 Z M2,0 Z " fill="#1E2739" transform="translate(391,941)"/>
<path d="M0,0 L3,1 L3,3 L5,3 L3,7 L0,3 Z " fill="#161E30" transform="translate(578,938)"/>
<path d="M0,0 L2,0 L2,2 L7,2 L7,4 L-1,3 Z " fill="#004EA4" transform="translate(834,731)"/>
<path d="M0,0 L3,1 L3,3 L-7,2 L-7,1 Z " fill="#014A9E" transform="translate(829,730)"/>
<path d="M0,0 L4,1 L1,1 L1,3 L-3,4 L-7,2 Z " fill="#414452" transform="translate(740,710)"/>
<path d="M0,0 L5,1 L3,2 L3,4 L-1,3 L-3,1 Z " fill="#F2F4F5" transform="translate(603,708)"/>
<path d="M0,0 L2,1 L3,4 L-8,4 L-8,3 L-1,2 Z " fill="#030614" transform="translate(771,694)"/>
<path d="M0,0 L3,3 L3,8 L1,9 Z " fill="#123B8E" transform="translate(421,671)"/>
<path d="M0,0 L2,0 L1,3 L-3,5 L-7,4 Z " fill="#CED0D7" transform="translate(683,498)"/>
<path d="M0,0 L1,3 L-5,6 L-5,3 Z " fill="#CFDDE9" transform="translate(688,473)"/>
<path d="M0,0 L2,3 L-1,9 L-3,9 Z " fill="#0195DB" transform="translate(331,349)"/>
<path d="M0,0 L4,0 L3,3 L-7,3 L-4,1 Z " fill="#A8C0D7" transform="translate(1031,259)"/>
</svg>
